G04 (created by PCBNEW (2013-09-18 BZR 4323)-product) date Mon 07 Oct 2013 06:48:44 PM PDT*
%MOIN*%
G04 Gerber Fmt 3.4, Leading zero omitted, Abs format*
%FSLAX34Y34*%
G01*
G70*
G90*
G04 APERTURE LIST*
%ADD10C,0.005906*%
%ADD11C,0.005000*%
%ADD12C,0.015000*%
%ADD13C,0.002000*%
%ADD14C,0.005900*%
%ADD15C,0.012000*%
%ADD16C,0.004500*%
%ADD17C,0.007900*%
%ADD18C,0.006000*%
G04 APERTURE END LIST*
G54D10*
G54D11*
X896Y10036D02*
X777Y10036D01*
X777Y10286D01*
X967Y10108D02*
X1086Y10108D01*
X944Y10036D02*
X1027Y10286D01*
X1110Y10036D01*
X1182Y10048D02*
X1217Y10036D01*
X1277Y10036D01*
X1301Y10048D01*
X1313Y10060D01*
X1325Y10084D01*
X1325Y10108D01*
X1313Y10132D01*
X1301Y10144D01*
X1277Y10155D01*
X1229Y10167D01*
X1205Y10179D01*
X1194Y10191D01*
X1182Y10215D01*
X1182Y10239D01*
X1194Y10263D01*
X1205Y10275D01*
X1229Y10286D01*
X1289Y10286D01*
X1325Y10275D01*
X1432Y10167D02*
X1515Y10167D01*
X1551Y10036D02*
X1432Y10036D01*
X1432Y10286D01*
X1551Y10286D01*
X1801Y10036D02*
X1717Y10155D01*
X1658Y10036D02*
X1658Y10286D01*
X1753Y10286D01*
X1777Y10275D01*
X1789Y10263D01*
X1801Y10239D01*
X1801Y10203D01*
X1789Y10179D01*
X1777Y10167D01*
X1753Y10155D01*
X1658Y10155D01*
X2241Y10036D02*
X2158Y10155D01*
X2098Y10036D02*
X2098Y10286D01*
X2194Y10286D01*
X2217Y10275D01*
X2229Y10263D01*
X2241Y10239D01*
X2241Y10203D01*
X2229Y10179D01*
X2217Y10167D01*
X2194Y10155D01*
X2098Y10155D01*
X2336Y10108D02*
X2455Y10108D01*
X2313Y10036D02*
X2396Y10286D01*
X2479Y10036D01*
X2610Y10155D02*
X2610Y10036D01*
X2527Y10286D02*
X2610Y10155D01*
X2694Y10286D01*
X2955Y10048D02*
X2991Y10036D01*
X3051Y10036D01*
X3075Y10048D01*
X3086Y10060D01*
X3098Y10084D01*
X3098Y10108D01*
X3086Y10132D01*
X3075Y10144D01*
X3051Y10155D01*
X3003Y10167D01*
X2979Y10179D01*
X2967Y10191D01*
X2955Y10215D01*
X2955Y10239D01*
X2967Y10263D01*
X2979Y10275D01*
X3003Y10286D01*
X3063Y10286D01*
X3098Y10275D01*
X3253Y10286D02*
X3301Y10286D01*
X3325Y10275D01*
X3348Y10251D01*
X3360Y10203D01*
X3360Y10120D01*
X3348Y10072D01*
X3325Y10048D01*
X3301Y10036D01*
X3253Y10036D01*
X3229Y10048D01*
X3205Y10072D01*
X3194Y10120D01*
X3194Y10203D01*
X3205Y10251D01*
X3229Y10275D01*
X3253Y10286D01*
X3467Y10286D02*
X3467Y10084D01*
X3479Y10060D01*
X3491Y10048D01*
X3515Y10036D01*
X3563Y10036D01*
X3586Y10048D01*
X3598Y10060D01*
X3610Y10084D01*
X3610Y10286D01*
X3729Y10036D02*
X3729Y10286D01*
X3872Y10036D01*
X3872Y10286D01*
X3991Y10036D02*
X3991Y10286D01*
X4051Y10286D01*
X4086Y10275D01*
X4110Y10251D01*
X4122Y10227D01*
X4134Y10179D01*
X4134Y10144D01*
X4122Y10096D01*
X4110Y10072D01*
X4086Y10048D01*
X4051Y10036D01*
X3991Y10036D01*
X372Y9767D02*
X408Y9755D01*
X420Y9744D01*
X432Y9720D01*
X432Y9684D01*
X420Y9660D01*
X408Y9648D01*
X384Y9636D01*
X289Y9636D01*
X289Y9886D01*
X372Y9886D01*
X396Y9875D01*
X408Y9863D01*
X420Y9839D01*
X420Y9815D01*
X408Y9791D01*
X396Y9779D01*
X372Y9767D01*
X289Y9767D01*
X527Y9708D02*
X646Y9708D01*
X503Y9636D02*
X586Y9886D01*
X670Y9636D01*
X896Y9636D02*
X813Y9755D01*
X753Y9636D02*
X753Y9886D01*
X848Y9886D01*
X872Y9875D01*
X884Y9863D01*
X896Y9839D01*
X896Y9803D01*
X884Y9779D01*
X872Y9767D01*
X848Y9755D01*
X753Y9755D01*
X967Y9886D02*
X1110Y9886D01*
X1039Y9636D02*
X1039Y9886D01*
X1384Y9636D02*
X1384Y9886D01*
X1467Y9708D01*
X1551Y9886D01*
X1551Y9636D01*
X1658Y9708D02*
X1777Y9708D01*
X1634Y9636D02*
X1717Y9886D01*
X1801Y9636D01*
X1872Y9648D02*
X1908Y9636D01*
X1967Y9636D01*
X1991Y9648D01*
X2003Y9660D01*
X2015Y9684D01*
X2015Y9708D01*
X2003Y9732D01*
X1991Y9744D01*
X1967Y9755D01*
X1920Y9767D01*
X1896Y9779D01*
X1884Y9791D01*
X1872Y9815D01*
X1872Y9839D01*
X1884Y9863D01*
X1896Y9875D01*
X1920Y9886D01*
X1979Y9886D01*
X2015Y9875D01*
X2110Y9648D02*
X2146Y9636D01*
X2205Y9636D01*
X2229Y9648D01*
X2241Y9660D01*
X2253Y9684D01*
X2253Y9708D01*
X2241Y9732D01*
X2229Y9744D01*
X2205Y9755D01*
X2158Y9767D01*
X2134Y9779D01*
X2122Y9791D01*
X2110Y9815D01*
X2110Y9839D01*
X2122Y9863D01*
X2134Y9875D01*
X2158Y9886D01*
X2217Y9886D01*
X2253Y9875D01*
X2360Y9767D02*
X2444Y9767D01*
X2479Y9636D02*
X2360Y9636D01*
X2360Y9886D01*
X2479Y9886D01*
X2634Y9755D02*
X2634Y9636D01*
X2551Y9886D02*
X2634Y9755D01*
X2717Y9886D01*
X2979Y9863D02*
X2991Y9875D01*
X3015Y9886D01*
X3075Y9886D01*
X3098Y9875D01*
X3110Y9863D01*
X3122Y9839D01*
X3122Y9815D01*
X3110Y9779D01*
X2967Y9636D01*
X3122Y9636D01*
X3277Y9886D02*
X3301Y9886D01*
X3325Y9875D01*
X3336Y9863D01*
X3348Y9839D01*
X3360Y9791D01*
X3360Y9732D01*
X3348Y9684D01*
X3336Y9660D01*
X3325Y9648D01*
X3301Y9636D01*
X3277Y9636D01*
X3253Y9648D01*
X3241Y9660D01*
X3229Y9684D01*
X3217Y9732D01*
X3217Y9791D01*
X3229Y9839D01*
X3241Y9863D01*
X3253Y9875D01*
X3277Y9886D01*
X3598Y9636D02*
X3455Y9636D01*
X3527Y9636D02*
X3527Y9886D01*
X3503Y9851D01*
X3479Y9827D01*
X3455Y9815D01*
X3682Y9886D02*
X3836Y9886D01*
X3753Y9791D01*
X3789Y9791D01*
X3813Y9779D01*
X3825Y9767D01*
X3836Y9744D01*
X3836Y9684D01*
X3825Y9660D01*
X3813Y9648D01*
X3789Y9636D01*
X3717Y9636D01*
X3694Y9648D01*
X3682Y9660D01*
X3944Y9732D02*
X4134Y9732D01*
X4384Y9636D02*
X4241Y9636D01*
X4313Y9636D02*
X4313Y9886D01*
X4289Y9851D01*
X4265Y9827D01*
X4241Y9815D01*
X4539Y9886D02*
X4563Y9886D01*
X4586Y9875D01*
X4598Y9863D01*
X4610Y9839D01*
X4622Y9791D01*
X4622Y9732D01*
X4610Y9684D01*
X4598Y9660D01*
X4586Y9648D01*
X4563Y9636D01*
X4539Y9636D01*
X4515Y9648D01*
X4503Y9660D01*
X4491Y9684D01*
X4479Y9732D01*
X4479Y9791D01*
X4491Y9839D01*
X4503Y9863D01*
X4515Y9875D01*
X4539Y9886D01*
G54D12*
X1575Y4469D02*
X1575Y2501D01*
X6102Y3485D02*
G75*
G03X6102Y3485I-2362J0D01*
G74*
G01*
X6870Y4973D02*
G75*
G03X6870Y4973I-39J0D01*
G74*
G01*
X8524Y6272D02*
X8524Y4698D01*
X8524Y4698D02*
X6556Y4698D01*
X6556Y4698D02*
X6556Y6272D01*
X6556Y6272D02*
X8524Y6272D01*
G54D11*
X7490Y2935D02*
X6590Y2935D01*
X6590Y2935D02*
X6590Y3435D01*
X6590Y3435D02*
X7490Y3435D01*
X7490Y3435D02*
X7490Y2935D01*
X7090Y9435D02*
X7990Y9435D01*
X7990Y9435D02*
X7990Y8935D01*
X7990Y8935D02*
X7090Y8935D01*
X7090Y8935D02*
X7090Y9435D01*
X6590Y8935D02*
X5690Y8935D01*
X5690Y8935D02*
X5690Y9435D01*
X5690Y9435D02*
X6590Y9435D01*
X6590Y9435D02*
X6590Y8935D01*
G54D12*
X4752Y6919D02*
X3374Y6919D01*
X5106Y8257D02*
X5106Y7313D01*
X3374Y8651D02*
X4712Y8651D01*
X4712Y8651D02*
X5106Y8257D01*
X4752Y6919D02*
X5106Y7313D01*
X3374Y6919D02*
X3374Y8651D01*
G54D13*
X7834Y8216D02*
G75*
G03X7834Y8216I-8J0D01*
G74*
G01*
X7787Y8267D02*
X7787Y7953D01*
X7393Y8267D02*
X7393Y7953D01*
X7826Y8110D02*
G75*
G03X7905Y8031I79J0D01*
G74*
G01*
X7905Y8189D02*
G75*
G03X7826Y8110I0J-79D01*
G74*
G01*
X7354Y8110D02*
G75*
G03X7275Y8189I-79J0D01*
G74*
G01*
X7275Y8031D02*
G75*
G03X7354Y8110I0J79D01*
G74*
G01*
G54D14*
X7275Y8267D02*
X7905Y8267D01*
X7905Y8267D02*
X7905Y7953D01*
X7905Y7953D02*
X7275Y7953D01*
X7275Y7953D02*
X7275Y8267D01*
G54D15*
X3982Y2685D02*
X4011Y2770D01*
X4011Y2913D01*
X3982Y2970D01*
X3954Y2999D01*
X3897Y3027D01*
X3840Y3027D01*
X3782Y2999D01*
X3754Y2970D01*
X3725Y2913D01*
X3697Y2799D01*
X3668Y2742D01*
X3640Y2713D01*
X3582Y2685D01*
X3525Y2685D01*
X3468Y2713D01*
X3440Y2742D01*
X3411Y2799D01*
X3411Y2942D01*
X3440Y3027D01*
X3411Y3227D02*
X4011Y3370D01*
X3582Y3485D01*
X4011Y3599D01*
X3411Y3742D01*
X4011Y4285D02*
X4011Y3942D01*
X4011Y4113D02*
X3411Y4113D01*
X3497Y4056D01*
X3554Y3999D01*
X3582Y3942D01*
G54D11*
X6835Y5609D02*
X6949Y5609D01*
X6892Y5409D02*
X6892Y5609D01*
X7007Y5419D02*
X7035Y5409D01*
X7083Y5409D01*
X7102Y5419D01*
X7111Y5428D01*
X7121Y5447D01*
X7121Y5466D01*
X7111Y5485D01*
X7102Y5495D01*
X7083Y5504D01*
X7045Y5514D01*
X7026Y5523D01*
X7016Y5533D01*
X7007Y5552D01*
X7007Y5571D01*
X7016Y5590D01*
X7026Y5600D01*
X7045Y5609D01*
X7092Y5609D01*
X7121Y5600D01*
X7302Y5609D02*
X7207Y5609D01*
X7197Y5514D01*
X7207Y5523D01*
X7226Y5533D01*
X7273Y5533D01*
X7292Y5523D01*
X7302Y5514D01*
X7311Y5495D01*
X7311Y5447D01*
X7302Y5428D01*
X7292Y5419D01*
X7273Y5409D01*
X7226Y5409D01*
X7207Y5419D01*
X7197Y5428D01*
X7492Y5609D02*
X7397Y5609D01*
X7388Y5514D01*
X7397Y5523D01*
X7416Y5533D01*
X7464Y5533D01*
X7483Y5523D01*
X7492Y5514D01*
X7502Y5495D01*
X7502Y5447D01*
X7492Y5428D01*
X7483Y5419D01*
X7464Y5409D01*
X7416Y5409D01*
X7397Y5419D01*
X7388Y5428D01*
X7683Y5609D02*
X7588Y5609D01*
X7578Y5514D01*
X7588Y5523D01*
X7607Y5533D01*
X7654Y5533D01*
X7673Y5523D01*
X7683Y5514D01*
X7692Y5495D01*
X7692Y5447D01*
X7683Y5428D01*
X7673Y5419D01*
X7654Y5409D01*
X7607Y5409D01*
X7588Y5419D01*
X7578Y5428D01*
X7892Y5428D02*
X7883Y5419D01*
X7854Y5409D01*
X7835Y5409D01*
X7807Y5419D01*
X7788Y5438D01*
X7778Y5457D01*
X7769Y5495D01*
X7769Y5523D01*
X7778Y5561D01*
X7788Y5580D01*
X7807Y5600D01*
X7835Y5609D01*
X7854Y5609D01*
X7883Y5600D01*
X7892Y5590D01*
X7978Y5409D02*
X7978Y5609D01*
X8026Y5609D01*
X8054Y5600D01*
X8073Y5580D01*
X8083Y5561D01*
X8092Y5523D01*
X8092Y5495D01*
X8083Y5457D01*
X8073Y5438D01*
X8054Y5419D01*
X8026Y5409D01*
X7978Y5409D01*
X8150Y5609D02*
X8264Y5609D01*
X8207Y5409D02*
X8207Y5609D01*
X6826Y2559D02*
X6711Y2559D01*
X6769Y2559D02*
X6769Y2759D01*
X6750Y2730D01*
X6730Y2711D01*
X6711Y2702D01*
X6950Y2759D02*
X6969Y2759D01*
X6988Y2750D01*
X6997Y2740D01*
X7007Y2721D01*
X7016Y2683D01*
X7016Y2635D01*
X7007Y2597D01*
X6997Y2578D01*
X6988Y2569D01*
X6969Y2559D01*
X6950Y2559D01*
X6930Y2569D01*
X6921Y2578D01*
X6911Y2597D01*
X6902Y2635D01*
X6902Y2683D01*
X6911Y2721D01*
X6921Y2740D01*
X6930Y2750D01*
X6950Y2759D01*
X7140Y2759D02*
X7159Y2759D01*
X7178Y2750D01*
X7188Y2740D01*
X7197Y2721D01*
X7207Y2683D01*
X7207Y2635D01*
X7197Y2597D01*
X7188Y2578D01*
X7178Y2569D01*
X7159Y2559D01*
X7140Y2559D01*
X7121Y2569D01*
X7111Y2578D01*
X7102Y2597D01*
X7092Y2635D01*
X7092Y2683D01*
X7102Y2721D01*
X7111Y2740D01*
X7121Y2750D01*
X7140Y2759D01*
X7292Y2692D02*
X7292Y2559D01*
X7292Y2673D02*
X7302Y2683D01*
X7321Y2692D01*
X7350Y2692D01*
X7369Y2683D01*
X7378Y2664D01*
X7378Y2559D01*
X7397Y8742D02*
X7397Y8609D01*
X7349Y8819D02*
X7302Y8676D01*
X7426Y8676D01*
X7483Y8809D02*
X7616Y8809D01*
X7530Y8609D01*
X7730Y8809D02*
X7750Y8809D01*
X7769Y8800D01*
X7778Y8790D01*
X7788Y8771D01*
X7797Y8733D01*
X7797Y8685D01*
X7788Y8647D01*
X7778Y8628D01*
X7769Y8619D01*
X7750Y8609D01*
X7730Y8609D01*
X7711Y8619D01*
X7702Y8628D01*
X7692Y8647D01*
X7683Y8685D01*
X7683Y8733D01*
X7692Y8771D01*
X7702Y8790D01*
X7711Y8800D01*
X7730Y8809D01*
G54D16*
X5787Y8790D02*
X5795Y8800D01*
X5812Y8809D01*
X5855Y8809D01*
X5872Y8800D01*
X5881Y8790D01*
X5890Y8771D01*
X5890Y8752D01*
X5881Y8723D01*
X5778Y8609D01*
X5890Y8609D01*
X5958Y8790D02*
X5967Y8800D01*
X5984Y8809D01*
X6027Y8809D01*
X6044Y8800D01*
X6052Y8790D01*
X6061Y8771D01*
X6061Y8752D01*
X6052Y8723D01*
X5950Y8609D01*
X6061Y8609D01*
X6172Y8809D02*
X6190Y8809D01*
X6207Y8800D01*
X6215Y8790D01*
X6224Y8771D01*
X6232Y8733D01*
X6232Y8685D01*
X6224Y8647D01*
X6215Y8628D01*
X6207Y8619D01*
X6190Y8609D01*
X6172Y8609D01*
X6155Y8619D01*
X6147Y8628D01*
X6138Y8647D01*
X6130Y8685D01*
X6130Y8733D01*
X6138Y8771D01*
X6147Y8790D01*
X6155Y8800D01*
X6172Y8809D01*
X6310Y8609D02*
X6310Y8809D01*
X6412Y8609D02*
X6335Y8723D01*
X6412Y8809D02*
X6310Y8695D01*
G54D11*
X4021Y7109D02*
X3907Y7109D01*
X3964Y7109D02*
X3964Y7309D01*
X3945Y7280D01*
X3926Y7261D01*
X3907Y7252D01*
X4145Y7309D02*
X4164Y7309D01*
X4183Y7300D01*
X4192Y7290D01*
X4202Y7271D01*
X4211Y7233D01*
X4211Y7185D01*
X4202Y7147D01*
X4192Y7128D01*
X4183Y7119D01*
X4164Y7109D01*
X4145Y7109D01*
X4126Y7119D01*
X4116Y7128D01*
X4107Y7147D01*
X4097Y7185D01*
X4097Y7233D01*
X4107Y7271D01*
X4116Y7290D01*
X4126Y7300D01*
X4145Y7309D01*
X4297Y7242D02*
X4297Y7042D01*
X4392Y7138D02*
X4402Y7119D01*
X4421Y7109D01*
X4297Y7138D02*
X4307Y7119D01*
X4326Y7109D01*
X4364Y7109D01*
X4383Y7119D01*
X4392Y7138D01*
X4392Y7242D01*
X4573Y7214D02*
X4507Y7214D01*
X4507Y7109D02*
X4507Y7309D01*
X4602Y7309D01*
G54D17*
X4449Y8321D02*
X4750Y8321D01*
X4600Y8171D02*
X4600Y8471D01*
G54D11*
X7471Y7609D02*
X7376Y7609D01*
X7376Y7809D01*
X7538Y7714D02*
X7604Y7714D01*
X7633Y7609D02*
X7538Y7609D01*
X7538Y7809D01*
X7633Y7809D01*
X7719Y7609D02*
X7719Y7809D01*
X7766Y7809D01*
X7795Y7800D01*
X7814Y7780D01*
X7823Y7761D01*
X7833Y7723D01*
X7833Y7695D01*
X7823Y7657D01*
X7814Y7638D01*
X7795Y7619D01*
X7766Y7609D01*
X7719Y7609D01*
X8311Y8028D02*
X8302Y8019D01*
X8273Y8009D01*
X8254Y8009D01*
X8226Y8019D01*
X8207Y8038D01*
X8197Y8057D01*
X8188Y8095D01*
X8188Y8123D01*
X8197Y8161D01*
X8207Y8180D01*
X8226Y8200D01*
X8254Y8209D01*
X8273Y8209D01*
X8302Y8200D01*
X8311Y8190D01*
G54D18*
X1066Y7453D02*
X1109Y7439D01*
X1180Y7439D01*
X1209Y7453D01*
X1223Y7467D01*
X1237Y7496D01*
X1237Y7525D01*
X1223Y7553D01*
X1209Y7567D01*
X1180Y7582D01*
X1123Y7596D01*
X1095Y7610D01*
X1080Y7625D01*
X1066Y7653D01*
X1066Y7682D01*
X1080Y7710D01*
X1095Y7725D01*
X1123Y7739D01*
X1195Y7739D01*
X1237Y7725D01*
X1366Y7439D02*
X1366Y7739D01*
X1480Y7739D01*
X1509Y7725D01*
X1523Y7710D01*
X1537Y7682D01*
X1537Y7639D01*
X1523Y7610D01*
X1509Y7596D01*
X1480Y7582D01*
X1366Y7582D01*
X1823Y7439D02*
X1652Y7439D01*
X1737Y7439D02*
X1737Y7739D01*
X1709Y7696D01*
X1680Y7667D01*
X1652Y7653D01*
M02*
