G04 (created by PCBNEW (2013-09-18 BZR 4323)-product) date Sun 06 Oct 2013 04:01:11 PM PDT*
%MOIN*%
G04 Gerber Fmt 3.4, Leading zero omitted, Abs format*
%FSLAX34Y34*%
G01*
G70*
G90*
G04 APERTURE LIST*
%ADD10C,0.005906*%
%ADD11C,0.000100*%
%ADD12C,0.078700*%
%ADD13R,0.023600X0.055100*%
%ADD14R,0.025000X0.045000*%
%ADD15R,0.078700X0.039400*%
%ADD16R,0.031500X0.031500*%
%ADD17R,0.250000X0.050000*%
%ADD18C,0.080000*%
%ADD19C,0.008000*%
G04 APERTURE END LIST*
G54D10*
G54D11*
X1446Y9386D02*
X1327Y9386D01*
X1327Y9636D01*
X1517Y9458D02*
X1636Y9458D01*
X1494Y9386D02*
X1577Y9636D01*
X1660Y9386D01*
X1732Y9398D02*
X1767Y9386D01*
X1827Y9386D01*
X1851Y9398D01*
X1863Y9410D01*
X1875Y9434D01*
X1875Y9458D01*
X1863Y9482D01*
X1851Y9494D01*
X1827Y9505D01*
X1779Y9517D01*
X1755Y9529D01*
X1744Y9541D01*
X1732Y9565D01*
X1732Y9589D01*
X1744Y9613D01*
X1755Y9625D01*
X1779Y9636D01*
X1839Y9636D01*
X1875Y9625D01*
X1982Y9517D02*
X2065Y9517D01*
X2101Y9386D02*
X1982Y9386D01*
X1982Y9636D01*
X2101Y9636D01*
X2351Y9386D02*
X2267Y9505D01*
X2208Y9386D02*
X2208Y9636D01*
X2303Y9636D01*
X2327Y9625D01*
X2339Y9613D01*
X2351Y9589D01*
X2351Y9553D01*
X2339Y9529D01*
X2327Y9517D01*
X2303Y9505D01*
X2208Y9505D01*
X2791Y9386D02*
X2708Y9505D01*
X2648Y9386D02*
X2648Y9636D01*
X2744Y9636D01*
X2767Y9625D01*
X2779Y9613D01*
X2791Y9589D01*
X2791Y9553D01*
X2779Y9529D01*
X2767Y9517D01*
X2744Y9505D01*
X2648Y9505D01*
X2886Y9458D02*
X3005Y9458D01*
X2863Y9386D02*
X2946Y9636D01*
X3029Y9386D01*
X3160Y9505D02*
X3160Y9386D01*
X3077Y9636D02*
X3160Y9505D01*
X3244Y9636D01*
X3505Y9398D02*
X3541Y9386D01*
X3601Y9386D01*
X3625Y9398D01*
X3636Y9410D01*
X3648Y9434D01*
X3648Y9458D01*
X3636Y9482D01*
X3625Y9494D01*
X3601Y9505D01*
X3553Y9517D01*
X3529Y9529D01*
X3517Y9541D01*
X3505Y9565D01*
X3505Y9589D01*
X3517Y9613D01*
X3529Y9625D01*
X3553Y9636D01*
X3613Y9636D01*
X3648Y9625D01*
X3803Y9636D02*
X3851Y9636D01*
X3875Y9625D01*
X3898Y9601D01*
X3910Y9553D01*
X3910Y9470D01*
X3898Y9422D01*
X3875Y9398D01*
X3851Y9386D01*
X3803Y9386D01*
X3779Y9398D01*
X3755Y9422D01*
X3744Y9470D01*
X3744Y9553D01*
X3755Y9601D01*
X3779Y9625D01*
X3803Y9636D01*
X4017Y9636D02*
X4017Y9434D01*
X4029Y9410D01*
X4041Y9398D01*
X4065Y9386D01*
X4113Y9386D01*
X4136Y9398D01*
X4148Y9410D01*
X4160Y9434D01*
X4160Y9636D01*
X4279Y9386D02*
X4279Y9636D01*
X4422Y9386D01*
X4422Y9636D01*
X4541Y9386D02*
X4541Y9636D01*
X4601Y9636D01*
X4636Y9625D01*
X4660Y9601D01*
X4672Y9577D01*
X4684Y9529D01*
X4684Y9494D01*
X4672Y9446D01*
X4660Y9422D01*
X4636Y9398D01*
X4601Y9386D01*
X4541Y9386D01*
X922Y9166D02*
X958Y9154D01*
X970Y9143D01*
X982Y9119D01*
X982Y9083D01*
X970Y9059D01*
X958Y9047D01*
X934Y9035D01*
X839Y9035D01*
X839Y9285D01*
X922Y9285D01*
X946Y9274D01*
X958Y9262D01*
X970Y9238D01*
X970Y9214D01*
X958Y9190D01*
X946Y9178D01*
X922Y9166D01*
X839Y9166D01*
X1077Y9107D02*
X1196Y9107D01*
X1053Y9035D02*
X1136Y9285D01*
X1220Y9035D01*
X1446Y9035D02*
X1363Y9154D01*
X1303Y9035D02*
X1303Y9285D01*
X1398Y9285D01*
X1422Y9274D01*
X1434Y9262D01*
X1446Y9238D01*
X1446Y9202D01*
X1434Y9178D01*
X1422Y9166D01*
X1398Y9154D01*
X1303Y9154D01*
X1517Y9285D02*
X1660Y9285D01*
X1589Y9035D02*
X1589Y9285D01*
X1934Y9035D02*
X1934Y9285D01*
X2017Y9107D01*
X2101Y9285D01*
X2101Y9035D01*
X2208Y9107D02*
X2327Y9107D01*
X2184Y9035D02*
X2267Y9285D01*
X2351Y9035D01*
X2422Y9047D02*
X2458Y9035D01*
X2517Y9035D01*
X2541Y9047D01*
X2553Y9059D01*
X2565Y9083D01*
X2565Y9107D01*
X2553Y9131D01*
X2541Y9143D01*
X2517Y9154D01*
X2470Y9166D01*
X2446Y9178D01*
X2434Y9190D01*
X2422Y9214D01*
X2422Y9238D01*
X2434Y9262D01*
X2446Y9274D01*
X2470Y9285D01*
X2529Y9285D01*
X2565Y9274D01*
X2660Y9047D02*
X2696Y9035D01*
X2755Y9035D01*
X2779Y9047D01*
X2791Y9059D01*
X2803Y9083D01*
X2803Y9107D01*
X2791Y9131D01*
X2779Y9143D01*
X2755Y9154D01*
X2708Y9166D01*
X2684Y9178D01*
X2672Y9190D01*
X2660Y9214D01*
X2660Y9238D01*
X2672Y9262D01*
X2684Y9274D01*
X2708Y9285D01*
X2767Y9285D01*
X2803Y9274D01*
X2910Y9166D02*
X2994Y9166D01*
X3029Y9035D02*
X2910Y9035D01*
X2910Y9285D01*
X3029Y9285D01*
X3184Y9154D02*
X3184Y9035D01*
X3101Y9285D02*
X3184Y9154D01*
X3267Y9285D01*
X3529Y9262D02*
X3541Y9274D01*
X3565Y9285D01*
X3625Y9285D01*
X3648Y9274D01*
X3660Y9262D01*
X3672Y9238D01*
X3672Y9214D01*
X3660Y9178D01*
X3517Y9035D01*
X3672Y9035D01*
X3827Y9285D02*
X3851Y9285D01*
X3875Y9274D01*
X3886Y9262D01*
X3898Y9238D01*
X3910Y9190D01*
X3910Y9131D01*
X3898Y9083D01*
X3886Y9059D01*
X3875Y9047D01*
X3851Y9035D01*
X3827Y9035D01*
X3803Y9047D01*
X3791Y9059D01*
X3779Y9083D01*
X3767Y9131D01*
X3767Y9190D01*
X3779Y9238D01*
X3791Y9262D01*
X3803Y9274D01*
X3827Y9285D01*
X4148Y9035D02*
X4005Y9035D01*
X4077Y9035D02*
X4077Y9285D01*
X4053Y9250D01*
X4029Y9226D01*
X4005Y9214D01*
X4232Y9285D02*
X4386Y9285D01*
X4303Y9190D01*
X4339Y9190D01*
X4363Y9178D01*
X4375Y9166D01*
X4386Y9143D01*
X4386Y9083D01*
X4375Y9059D01*
X4363Y9047D01*
X4339Y9035D01*
X4267Y9035D01*
X4244Y9047D01*
X4232Y9059D01*
X4494Y9131D02*
X4684Y9131D01*
X4934Y9035D02*
X4791Y9035D01*
X4863Y9035D02*
X4863Y9285D01*
X4839Y9250D01*
X4815Y9226D01*
X4791Y9214D01*
X5089Y9285D02*
X5113Y9285D01*
X5136Y9274D01*
X5148Y9262D01*
X5160Y9238D01*
X5172Y9190D01*
X5172Y9131D01*
X5160Y9083D01*
X5148Y9059D01*
X5136Y9047D01*
X5113Y9035D01*
X5089Y9035D01*
X5065Y9047D01*
X5053Y9059D01*
X5041Y9083D01*
X5029Y9131D01*
X5029Y9190D01*
X5041Y9238D01*
X5053Y9262D01*
X5065Y9274D01*
X5089Y9285D01*
G54D12*
X4974Y3919D03*
X4974Y1951D03*
X3006Y1951D03*
X3006Y3919D03*
G54D13*
X7040Y5985D03*
X7040Y3885D03*
X7540Y5985D03*
X8040Y5985D03*
X8540Y5985D03*
X7540Y3885D03*
X8040Y3885D03*
X8540Y3885D03*
G54D14*
X7590Y2635D03*
X6990Y2635D03*
X7490Y8635D03*
X8090Y8635D03*
X6690Y8635D03*
X6090Y8635D03*
G54D15*
X3703Y7235D03*
X5277Y7235D03*
G54D16*
X7545Y7560D03*
X8135Y7560D03*
G54D17*
X1495Y6325D03*
X1495Y5325D03*
G54D18*
X8540Y2560D03*
X1490Y4235D03*
G54D19*
X8303Y4304D02*
X7040Y5567D01*
X7040Y5985D02*
X7040Y5567D01*
X8540Y3885D02*
X8540Y4304D01*
X8540Y4304D02*
X8303Y4304D01*
X8540Y3885D02*
X8540Y2560D01*
X1495Y5325D02*
X1495Y4240D01*
X1495Y4240D02*
X1490Y4235D01*
X7040Y3885D02*
X7040Y2685D01*
X7040Y2685D02*
X6990Y2635D01*
X7040Y3885D02*
X6430Y3885D01*
X4990Y5325D02*
X1495Y5325D01*
X6430Y3885D02*
X4990Y5325D01*
X7545Y7560D02*
X7545Y7055D01*
X8540Y6510D02*
X8010Y7040D01*
X8010Y7040D02*
X7560Y7040D01*
X8540Y6510D02*
X8540Y5985D01*
X7545Y7055D02*
X7560Y7040D01*
X1495Y6325D02*
X2793Y6325D01*
X2793Y6325D02*
X3703Y7235D01*
X7490Y8635D02*
X7490Y8550D01*
X6490Y7550D02*
X6090Y7550D01*
X7490Y8550D02*
X6490Y7550D01*
X6090Y8635D02*
X6090Y7550D01*
X6090Y7550D02*
X6090Y7540D01*
X5785Y7235D02*
X5277Y7235D01*
X6090Y7540D02*
X5785Y7235D01*
X7868Y4304D02*
X8040Y4304D01*
X8040Y3885D02*
X8040Y4304D01*
X5277Y6895D02*
X7868Y4304D01*
X5277Y7235D02*
X5277Y6895D01*
X6690Y8635D02*
X6690Y9395D01*
X6705Y9435D02*
X6705Y9420D01*
X6690Y9420D02*
X6705Y9435D01*
X6665Y9420D02*
X6690Y9420D01*
X6690Y9395D02*
X6665Y9420D01*
X7760Y9420D02*
X6705Y9420D01*
X6705Y9420D02*
X5860Y9420D01*
X5860Y9420D02*
X4540Y8100D01*
X6720Y5160D02*
X7540Y4340D01*
X6000Y5160D02*
X6720Y5160D01*
X4540Y6620D02*
X6000Y5160D01*
X4540Y7820D02*
X4540Y6620D01*
X4540Y8100D02*
X4540Y7820D01*
X7540Y3885D02*
X7540Y4340D01*
X7770Y9410D02*
X7760Y9420D01*
X7770Y9410D02*
X7770Y8120D01*
X8040Y5985D02*
X8040Y6380D01*
X7350Y8120D02*
X7770Y8120D01*
X6890Y7660D02*
X7350Y8120D01*
X6890Y6950D02*
X6890Y7660D01*
X7110Y6730D02*
X6890Y6950D01*
X7690Y6730D02*
X7110Y6730D01*
X8040Y6380D02*
X7690Y6730D01*
X7770Y8120D02*
X7760Y8130D01*
X7590Y3003D02*
X7540Y3053D01*
X7590Y2635D02*
X7590Y3003D01*
X7540Y3053D02*
X7540Y3885D01*
X8135Y8222D02*
X8090Y8267D01*
X8135Y7560D02*
X8135Y8222D01*
X8090Y8635D02*
X8090Y8267D01*
M02*
