G04 (created by PCBNEW (2013-09-18 BZR 4323)-product) date Mon 07 Oct 2013 06:48:44 PM PDT*
%MOIN*%
G04 Gerber Fmt 3.4, Leading zero omitted, Abs format*
%FSLAX34Y34*%
G01*
G70*
G90*
G04 APERTURE LIST*
%ADD10C,0.005906*%
%ADD11C,0.010000*%
%ADD12C,0.006000*%
G04 APERTURE END LIST*
G54D10*
G54D11*
X3002Y9221D02*
X2697Y9221D01*
X2850Y9069D02*
X2850Y9373D01*
G54D12*
X1485Y9471D02*
X1442Y9457D01*
X1428Y9442D01*
X1414Y9414D01*
X1414Y9371D01*
X1428Y9342D01*
X1442Y9328D01*
X1471Y9314D01*
X1585Y9314D01*
X1585Y9614D01*
X1485Y9614D01*
X1457Y9600D01*
X1442Y9585D01*
X1428Y9557D01*
X1428Y9528D01*
X1442Y9500D01*
X1457Y9485D01*
X1485Y9471D01*
X1585Y9471D01*
X1328Y9614D02*
X1157Y9614D01*
X1242Y9314D02*
X1242Y9614D01*
X900Y9314D02*
X1071Y9314D01*
X985Y9314D02*
X985Y9614D01*
X1014Y9571D01*
X1042Y9542D01*
X1071Y9528D01*
X1999Y7171D02*
X1957Y7157D01*
X1942Y7142D01*
X1928Y7114D01*
X1928Y7071D01*
X1942Y7042D01*
X1957Y7028D01*
X1985Y7014D01*
X2099Y7014D01*
X2099Y7314D01*
X1999Y7314D01*
X1971Y7300D01*
X1957Y7285D01*
X1942Y7257D01*
X1942Y7228D01*
X1957Y7200D01*
X1971Y7185D01*
X1999Y7171D01*
X2099Y7171D01*
X1814Y7100D02*
X1671Y7100D01*
X1842Y7014D02*
X1742Y7314D01*
X1642Y7014D01*
X1585Y7314D02*
X1414Y7314D01*
X1499Y7014D02*
X1499Y7314D01*
X1357Y7314D02*
X1185Y7314D01*
X1271Y7014D02*
X1271Y7314D01*
X1085Y7171D02*
X985Y7171D01*
X942Y7014D02*
X1085Y7014D01*
X1085Y7314D01*
X942Y7314D01*
X642Y7014D02*
X742Y7157D01*
X814Y7014D02*
X814Y7314D01*
X700Y7314D01*
X671Y7300D01*
X657Y7285D01*
X642Y7257D01*
X642Y7214D01*
X657Y7185D01*
X671Y7171D01*
X700Y7157D01*
X814Y7157D01*
X457Y7157D02*
X457Y7014D01*
X557Y7314D02*
X457Y7157D01*
X357Y7314D01*
M02*
