G04 (created by PCBNEW (2013-09-18 BZR 4323)-product) date Mon 07 Oct 2013 05:14:51 PM PDT*
%MOIN*%
G04 Gerber Fmt 3.4, Leading zero omitted, Abs format*
%FSLAX34Y34*%
G01*
G70*
G90*
G04 APERTURE LIST*
%ADD10C,0.005906*%
%ADD11C,0.078700*%
%ADD12R,0.023600X0.055100*%
%ADD13R,0.025000X0.045000*%
%ADD14R,0.078700X0.039400*%
%ADD15R,0.031500X0.031500*%
%ADD16R,0.250000X0.050000*%
%ADD17C,0.035000*%
%ADD18C,0.008000*%
G04 APERTURE END LIST*
G54D10*
G54D11*
X4974Y3919D03*
X4974Y1951D03*
X3006Y1951D03*
X3006Y3919D03*
G54D12*
X7040Y5985D03*
X7040Y3885D03*
X7540Y5985D03*
X8040Y5985D03*
X8540Y5985D03*
X7540Y3885D03*
X8040Y3885D03*
X8540Y3885D03*
G54D13*
X7590Y2635D03*
X6990Y2635D03*
X7490Y8635D03*
X8090Y8635D03*
X6690Y8635D03*
X6090Y8635D03*
G54D14*
X3703Y7235D03*
X5277Y7235D03*
G54D15*
X7545Y7560D03*
X8135Y7560D03*
G54D16*
X1495Y6325D03*
X1495Y5325D03*
G54D17*
X8540Y2560D03*
X1490Y4235D03*
G54D18*
X8303Y4304D02*
X7040Y5567D01*
X7040Y5985D02*
X7040Y5567D01*
X8540Y3885D02*
X8540Y4304D01*
X8540Y4304D02*
X8303Y4304D01*
X8540Y3885D02*
X8540Y2560D01*
X1495Y5325D02*
X1495Y4240D01*
X1495Y4240D02*
X1490Y4235D01*
X7040Y3885D02*
X7040Y2685D01*
X7040Y2685D02*
X6990Y2635D01*
X7040Y3885D02*
X6430Y3885D01*
X4990Y5325D02*
X1495Y5325D01*
X6430Y3885D02*
X4990Y5325D01*
X7545Y7560D02*
X7545Y7055D01*
X8540Y6510D02*
X8010Y7040D01*
X8010Y7040D02*
X7560Y7040D01*
X8540Y6510D02*
X8540Y5985D01*
X7545Y7055D02*
X7560Y7040D01*
X1495Y6325D02*
X2793Y6325D01*
X2793Y6325D02*
X3703Y7235D01*
X7490Y8635D02*
X7490Y8550D01*
X6490Y7550D02*
X6090Y7550D01*
X7490Y8550D02*
X6490Y7550D01*
X6090Y8635D02*
X6090Y7550D01*
X6090Y7550D02*
X6090Y7540D01*
X5785Y7235D02*
X5277Y7235D01*
X6090Y7540D02*
X5785Y7235D01*
X7868Y4304D02*
X8040Y4304D01*
X8040Y3885D02*
X8040Y4304D01*
X5277Y6895D02*
X7868Y4304D01*
X5277Y7235D02*
X5277Y6895D01*
X8040Y5985D02*
X8040Y5560D01*
X8695Y9395D02*
X6690Y9395D01*
X8700Y9400D02*
X8695Y9395D01*
X8700Y7200D02*
X8700Y9400D01*
X8900Y7000D02*
X8700Y7200D01*
X8900Y5400D02*
X8900Y7000D01*
X8200Y5400D02*
X8900Y5400D01*
X8040Y5560D02*
X8200Y5400D01*
X6690Y8635D02*
X6690Y9395D01*
X6705Y9435D02*
X6705Y9420D01*
X6690Y9420D02*
X6705Y9435D01*
X6665Y9420D02*
X6690Y9420D01*
X6690Y9395D02*
X6665Y9420D01*
X6705Y9420D02*
X5860Y9420D01*
X5860Y9420D02*
X4540Y8100D01*
X6720Y5160D02*
X7540Y4340D01*
X6000Y5160D02*
X6720Y5160D01*
X4540Y6620D02*
X6000Y5160D01*
X4540Y7820D02*
X4540Y6620D01*
X4540Y8100D02*
X4540Y7820D01*
X7540Y3885D02*
X7540Y4340D01*
X7590Y3003D02*
X7540Y3053D01*
X7590Y2635D02*
X7590Y3003D01*
X7540Y3053D02*
X7540Y3885D01*
X8135Y8222D02*
X8090Y8267D01*
X8135Y7560D02*
X8135Y8222D01*
X8090Y8635D02*
X8090Y8267D01*
M02*
