G04 (created by PCBNEW (2013-09-18 BZR 4323)-product) date Mon 07 Oct 2013 07:07:53 PM PDT*
%MOIN*%
G04 Gerber Fmt 3.4, Leading zero omitted, Abs format*
%FSLAX34Y34*%
G01*
G70*
G90*
G04 APERTURE LIST*
%ADD10C,0.005906*%
%ADD11C,0.005000*%
%ADD12C,0.078700*%
%ADD13R,0.023600X0.055100*%
%ADD14R,0.025000X0.045000*%
%ADD15R,0.078700X0.039400*%
%ADD16R,0.031500X0.031500*%
%ADD17R,0.250000X0.050000*%
%ADD18C,0.100000*%
%ADD19C,0.008000*%
G04 APERTURE END LIST*
G54D10*
G54D11*
X896Y10036D02*
X777Y10036D01*
X777Y10286D01*
X967Y10108D02*
X1086Y10108D01*
X944Y10036D02*
X1027Y10286D01*
X1110Y10036D01*
X1182Y10048D02*
X1217Y10036D01*
X1277Y10036D01*
X1301Y10048D01*
X1313Y10060D01*
X1325Y10084D01*
X1325Y10108D01*
X1313Y10132D01*
X1301Y10144D01*
X1277Y10155D01*
X1229Y10167D01*
X1205Y10179D01*
X1194Y10191D01*
X1182Y10215D01*
X1182Y10239D01*
X1194Y10263D01*
X1205Y10275D01*
X1229Y10286D01*
X1289Y10286D01*
X1325Y10275D01*
X1432Y10167D02*
X1515Y10167D01*
X1551Y10036D02*
X1432Y10036D01*
X1432Y10286D01*
X1551Y10286D01*
X1801Y10036D02*
X1717Y10155D01*
X1658Y10036D02*
X1658Y10286D01*
X1753Y10286D01*
X1777Y10275D01*
X1789Y10263D01*
X1801Y10239D01*
X1801Y10203D01*
X1789Y10179D01*
X1777Y10167D01*
X1753Y10155D01*
X1658Y10155D01*
X2241Y10036D02*
X2158Y10155D01*
X2098Y10036D02*
X2098Y10286D01*
X2194Y10286D01*
X2217Y10275D01*
X2229Y10263D01*
X2241Y10239D01*
X2241Y10203D01*
X2229Y10179D01*
X2217Y10167D01*
X2194Y10155D01*
X2098Y10155D01*
X2336Y10108D02*
X2455Y10108D01*
X2313Y10036D02*
X2396Y10286D01*
X2479Y10036D01*
X2610Y10155D02*
X2610Y10036D01*
X2527Y10286D02*
X2610Y10155D01*
X2694Y10286D01*
X2955Y10048D02*
X2991Y10036D01*
X3051Y10036D01*
X3075Y10048D01*
X3086Y10060D01*
X3098Y10084D01*
X3098Y10108D01*
X3086Y10132D01*
X3075Y10144D01*
X3051Y10155D01*
X3003Y10167D01*
X2979Y10179D01*
X2967Y10191D01*
X2955Y10215D01*
X2955Y10239D01*
X2967Y10263D01*
X2979Y10275D01*
X3003Y10286D01*
X3063Y10286D01*
X3098Y10275D01*
X3253Y10286D02*
X3301Y10286D01*
X3325Y10275D01*
X3348Y10251D01*
X3360Y10203D01*
X3360Y10120D01*
X3348Y10072D01*
X3325Y10048D01*
X3301Y10036D01*
X3253Y10036D01*
X3229Y10048D01*
X3205Y10072D01*
X3194Y10120D01*
X3194Y10203D01*
X3205Y10251D01*
X3229Y10275D01*
X3253Y10286D01*
X3467Y10286D02*
X3467Y10084D01*
X3479Y10060D01*
X3491Y10048D01*
X3515Y10036D01*
X3563Y10036D01*
X3586Y10048D01*
X3598Y10060D01*
X3610Y10084D01*
X3610Y10286D01*
X3729Y10036D02*
X3729Y10286D01*
X3872Y10036D01*
X3872Y10286D01*
X3991Y10036D02*
X3991Y10286D01*
X4051Y10286D01*
X4086Y10275D01*
X4110Y10251D01*
X4122Y10227D01*
X4134Y10179D01*
X4134Y10144D01*
X4122Y10096D01*
X4110Y10072D01*
X4086Y10048D01*
X4051Y10036D01*
X3991Y10036D01*
X372Y9767D02*
X408Y9755D01*
X420Y9744D01*
X432Y9720D01*
X432Y9684D01*
X420Y9660D01*
X408Y9648D01*
X384Y9636D01*
X289Y9636D01*
X289Y9886D01*
X372Y9886D01*
X396Y9875D01*
X408Y9863D01*
X420Y9839D01*
X420Y9815D01*
X408Y9791D01*
X396Y9779D01*
X372Y9767D01*
X289Y9767D01*
X527Y9708D02*
X646Y9708D01*
X503Y9636D02*
X586Y9886D01*
X670Y9636D01*
X896Y9636D02*
X813Y9755D01*
X753Y9636D02*
X753Y9886D01*
X848Y9886D01*
X872Y9875D01*
X884Y9863D01*
X896Y9839D01*
X896Y9803D01*
X884Y9779D01*
X872Y9767D01*
X848Y9755D01*
X753Y9755D01*
X967Y9886D02*
X1110Y9886D01*
X1039Y9636D02*
X1039Y9886D01*
X1384Y9636D02*
X1384Y9886D01*
X1467Y9708D01*
X1551Y9886D01*
X1551Y9636D01*
X1658Y9708D02*
X1777Y9708D01*
X1634Y9636D02*
X1717Y9886D01*
X1801Y9636D01*
X1872Y9648D02*
X1908Y9636D01*
X1967Y9636D01*
X1991Y9648D01*
X2003Y9660D01*
X2015Y9684D01*
X2015Y9708D01*
X2003Y9732D01*
X1991Y9744D01*
X1967Y9755D01*
X1920Y9767D01*
X1896Y9779D01*
X1884Y9791D01*
X1872Y9815D01*
X1872Y9839D01*
X1884Y9863D01*
X1896Y9875D01*
X1920Y9886D01*
X1979Y9886D01*
X2015Y9875D01*
X2110Y9648D02*
X2146Y9636D01*
X2205Y9636D01*
X2229Y9648D01*
X2241Y9660D01*
X2253Y9684D01*
X2253Y9708D01*
X2241Y9732D01*
X2229Y9744D01*
X2205Y9755D01*
X2158Y9767D01*
X2134Y9779D01*
X2122Y9791D01*
X2110Y9815D01*
X2110Y9839D01*
X2122Y9863D01*
X2134Y9875D01*
X2158Y9886D01*
X2217Y9886D01*
X2253Y9875D01*
X2360Y9767D02*
X2444Y9767D01*
X2479Y9636D02*
X2360Y9636D01*
X2360Y9886D01*
X2479Y9886D01*
X2634Y9755D02*
X2634Y9636D01*
X2551Y9886D02*
X2634Y9755D01*
X2717Y9886D01*
X2979Y9863D02*
X2991Y9875D01*
X3015Y9886D01*
X3075Y9886D01*
X3098Y9875D01*
X3110Y9863D01*
X3122Y9839D01*
X3122Y9815D01*
X3110Y9779D01*
X2967Y9636D01*
X3122Y9636D01*
X3277Y9886D02*
X3301Y9886D01*
X3325Y9875D01*
X3336Y9863D01*
X3348Y9839D01*
X3360Y9791D01*
X3360Y9732D01*
X3348Y9684D01*
X3336Y9660D01*
X3325Y9648D01*
X3301Y9636D01*
X3277Y9636D01*
X3253Y9648D01*
X3241Y9660D01*
X3229Y9684D01*
X3217Y9732D01*
X3217Y9791D01*
X3229Y9839D01*
X3241Y9863D01*
X3253Y9875D01*
X3277Y9886D01*
X3598Y9636D02*
X3455Y9636D01*
X3527Y9636D02*
X3527Y9886D01*
X3503Y9851D01*
X3479Y9827D01*
X3455Y9815D01*
X3682Y9886D02*
X3836Y9886D01*
X3753Y9791D01*
X3789Y9791D01*
X3813Y9779D01*
X3825Y9767D01*
X3836Y9744D01*
X3836Y9684D01*
X3825Y9660D01*
X3813Y9648D01*
X3789Y9636D01*
X3717Y9636D01*
X3694Y9648D01*
X3682Y9660D01*
X3944Y9732D02*
X4134Y9732D01*
X4384Y9636D02*
X4241Y9636D01*
X4313Y9636D02*
X4313Y9886D01*
X4289Y9851D01*
X4265Y9827D01*
X4241Y9815D01*
X4539Y9886D02*
X4563Y9886D01*
X4586Y9875D01*
X4598Y9863D01*
X4610Y9839D01*
X4622Y9791D01*
X4622Y9732D01*
X4610Y9684D01*
X4598Y9660D01*
X4586Y9648D01*
X4563Y9636D01*
X4539Y9636D01*
X4515Y9648D01*
X4503Y9660D01*
X4491Y9684D01*
X4479Y9732D01*
X4479Y9791D01*
X4491Y9839D01*
X4503Y9863D01*
X4515Y9875D01*
X4539Y9886D01*
G54D12*
X4724Y4469D03*
X4724Y2501D03*
X2756Y2501D03*
X2756Y4469D03*
G54D13*
X6790Y6535D03*
X6790Y4435D03*
X7290Y6535D03*
X7790Y6535D03*
X8290Y6535D03*
X7290Y4435D03*
X7790Y4435D03*
X8290Y4435D03*
G54D14*
X7340Y3185D03*
X6740Y3185D03*
X7240Y9185D03*
X7840Y9185D03*
X6440Y9185D03*
X5840Y9185D03*
G54D15*
X3453Y7785D03*
X5027Y7785D03*
G54D16*
X7295Y8110D03*
X7885Y8110D03*
G54D17*
X1245Y6875D03*
X1245Y5875D03*
G54D18*
X8290Y3110D03*
X1240Y4785D03*
G54D19*
X8053Y4854D02*
X6790Y6117D01*
X6790Y6535D02*
X6790Y6117D01*
X8290Y4435D02*
X8290Y4854D01*
X8290Y4854D02*
X8053Y4854D01*
X8290Y4435D02*
X8290Y3110D01*
X1245Y5875D02*
X1245Y4790D01*
X1245Y4790D02*
X1240Y4785D01*
X6790Y4435D02*
X6790Y3235D01*
X6790Y3235D02*
X6740Y3185D01*
X6790Y4435D02*
X6180Y4435D01*
X4740Y5875D02*
X1245Y5875D01*
X6180Y4435D02*
X4740Y5875D01*
X7295Y8110D02*
X7295Y7605D01*
X8290Y7060D02*
X7760Y7590D01*
X7760Y7590D02*
X7310Y7590D01*
X8290Y7060D02*
X8290Y6535D01*
X7295Y7605D02*
X7310Y7590D01*
X1245Y6875D02*
X2543Y6875D01*
X2543Y6875D02*
X3453Y7785D01*
X7240Y9185D02*
X7240Y9100D01*
X6240Y8100D02*
X5840Y8100D01*
X7240Y9100D02*
X6240Y8100D01*
X5840Y9185D02*
X5840Y8100D01*
X5840Y8100D02*
X5840Y8090D01*
X5535Y7785D02*
X5027Y7785D01*
X5840Y8090D02*
X5535Y7785D01*
X7618Y4854D02*
X7790Y4854D01*
X7790Y4435D02*
X7790Y4854D01*
X5027Y7445D02*
X7618Y4854D01*
X5027Y7785D02*
X5027Y7445D01*
X7790Y6535D02*
X7790Y6110D01*
X8445Y9945D02*
X6440Y9945D01*
X8450Y9950D02*
X8445Y9945D01*
X8450Y7750D02*
X8450Y9950D01*
X8650Y7550D02*
X8450Y7750D01*
X8650Y5950D02*
X8650Y7550D01*
X7950Y5950D02*
X8650Y5950D01*
X7790Y6110D02*
X7950Y5950D01*
X6440Y9185D02*
X6440Y9945D01*
X6455Y9985D02*
X6455Y9970D01*
X6440Y9970D02*
X6455Y9985D01*
X6415Y9970D02*
X6440Y9970D01*
X6440Y9945D02*
X6415Y9970D01*
X6455Y9970D02*
X5610Y9970D01*
X5610Y9970D02*
X4290Y8650D01*
X6470Y5710D02*
X7290Y4890D01*
X5750Y5710D02*
X6470Y5710D01*
X4290Y7170D02*
X5750Y5710D01*
X4290Y8370D02*
X4290Y7170D01*
X4290Y8650D02*
X4290Y8370D01*
X7290Y4435D02*
X7290Y4890D01*
X7340Y3553D02*
X7290Y3603D01*
X7340Y3185D02*
X7340Y3553D01*
X7290Y3603D02*
X7290Y4435D01*
X7885Y8772D02*
X7840Y8817D01*
X7885Y8110D02*
X7885Y8772D01*
X7840Y9185D02*
X7840Y8817D01*
M02*
