<?xml version="1.0" encoding="UTF-8"?>
<svg xmlns="http://www.w3.org/2000/svg" xmlns:xlink="http://www.w3.org/1999/xlink" width="62pt" height="49pt" viewBox="0 0 62 49" version="1.1">
<g id="surface41799">
<path style=" stroke:none;fill-rule:evenodd;fill:rgb(45.882353%,94.901961%,40.392157%);fill-opacity:1;" d="M 47.644531 22.839844 L 48.664062 22.839844 L 48.664062 20.460938 L 47.644531 20.460938 Z "/>
<path style=" stroke:none;fill-rule:evenodd;fill:rgb(45.882353%,94.901961%,40.392157%);fill-opacity:1;" d="M 47.644531 37.960938 L 48.664062 37.960938 L 48.664062 35.582031 L 47.644531 35.582031 Z "/>
<path style=" stroke:none;fill-rule:evenodd;fill:rgb(45.882353%,94.901961%,40.392157%);fill-opacity:1;" d="M 51.246094 22.839844 L 52.265625 22.839844 L 52.265625 20.460938 L 51.246094 20.460938 Z "/>
<path style=" stroke:none;fill-rule:evenodd;fill:rgb(45.882353%,94.901961%,40.392157%);fill-opacity:1;" d="M 54.847656 22.839844 L 55.867188 22.839844 L 55.867188 20.460938 L 54.847656 20.460938 Z "/>
<path style=" stroke:none;fill-rule:evenodd;fill:rgb(45.882353%,94.901961%,40.392157%);fill-opacity:1;" d="M 58.445312 22.839844 L 59.464844 22.839844 L 59.464844 20.460938 L 58.445312 20.460938 Z "/>
<path style=" stroke:none;fill-rule:evenodd;fill:rgb(45.882353%,94.901961%,40.392157%);fill-opacity:1;" d="M 51.246094 37.960938 L 52.265625 37.960938 L 52.265625 35.582031 L 51.246094 35.582031 Z "/>
<path style=" stroke:none;fill-rule:evenodd;fill:rgb(45.882353%,94.901961%,40.392157%);fill-opacity:1;" d="M 54.847656 37.960938 L 55.867188 37.960938 L 55.867188 35.582031 L 54.847656 35.582031 Z "/>
<path style=" stroke:none;fill-rule:evenodd;fill:rgb(45.882353%,94.901961%,40.392157%);fill-opacity:1;" d="M 58.445312 37.960938 L 59.464844 37.960938 L 59.464844 35.582031 L 58.445312 35.582031 Z "/>
<path style=" stroke:none;fill-rule:evenodd;fill:rgb(45.882353%,94.901961%,40.392157%);fill-opacity:1;" d="M 51.574219 46.742188 L 52.652344 46.742188 L 52.652344 44.796875 L 51.574219 44.796875 Z "/>
<path style=" stroke:none;fill-rule:evenodd;fill:rgb(45.882353%,94.901961%,40.392157%);fill-opacity:1;" d="M 47.253906 46.742188 L 48.332031 46.742188 L 48.332031 44.796875 L 47.253906 44.796875 Z "/>
<path style=" stroke:none;fill-rule:evenodd;fill:rgb(45.882353%,94.901961%,40.392157%);fill-opacity:1;" d="M 50.855469 3.542969 L 51.933594 3.542969 L 51.933594 1.597656 L 50.855469 1.597656 Z "/>
<path style=" stroke:none;fill-rule:evenodd;fill:rgb(45.882353%,94.901961%,40.392157%);fill-opacity:1;" d="M 55.175781 3.542969 L 56.253906 3.542969 L 56.253906 1.597656 L 55.175781 1.597656 Z "/>
<path style=" stroke:none;fill-rule:evenodd;fill:rgb(45.882353%,94.901961%,40.392157%);fill-opacity:1;" d="M 45.09375 3.542969 L 46.171875 3.542969 L 46.171875 1.597656 L 45.09375 1.597656 Z "/>
<path style=" stroke:none;fill-rule:evenodd;fill:rgb(45.882353%,94.901961%,40.392157%);fill-opacity:1;" d="M 40.777344 3.542969 L 41.855469 3.542969 L 41.855469 1.597656 L 40.777344 1.597656 Z "/>
<path style=" stroke:none;fill-rule:evenodd;fill:rgb(45.882353%,94.901961%,40.392157%);fill-opacity:1;" d="M 22.429688 13.5 L 25.828125 13.5 L 25.828125 11.796875 L 22.429688 11.796875 Z "/>
<path style=" stroke:none;fill-rule:evenodd;fill:rgb(45.882353%,94.901961%,40.392157%);fill-opacity:1;" d="M 33.761719 13.5 L 37.160156 13.5 L 37.160156 11.796875 L 33.761719 11.796875 Z "/>
<path style=" stroke:none;fill-rule:evenodd;fill:rgb(45.882353%,94.901961%,40.392157%);fill-opacity:1;" d="M 51.109375 10.992188 L 52.46875 10.992188 L 52.46875 9.632812 L 51.109375 9.632812 Z "/>
<path style=" stroke:none;fill-rule:evenodd;fill:rgb(45.882353%,94.901961%,40.392157%);fill-opacity:1;" d="M 55.359375 10.992188 L 56.71875 10.992188 L 56.71875 9.632812 L 55.359375 9.632812 Z "/>
<path style=" stroke:none;fill-rule:evenodd;fill:rgb(45.882353%,94.901961%,40.392157%);fill-opacity:1;" d="M 2.832031 20.28125 L 13.632812 20.28125 L 13.632812 18.121094 L 2.832031 18.121094 Z "/>
<path style=" stroke:none;fill-rule:evenodd;fill:rgb(45.882353%,94.901961%,40.392157%);fill-opacity:1;" d="M 2.832031 27.484375 L 13.632812 27.484375 L 13.632812 25.324219 L 2.832031 25.324219 Z "/>
</g>
</svg>
