G04 (created by PCBNEW (2013-09-18 BZR 4323)-product) date Mon 07 Oct 2013 05:14:51 PM PDT*
%MOIN*%
G04 Gerber Fmt 3.4, Leading zero omitted, Abs format*
%FSLAX34Y34*%
G01*
G70*
G90*
G04 APERTURE LIST*
%ADD10C,0.005906*%
%ADD11C,0.005000*%
%ADD12C,0.015000*%
%ADD13C,0.002000*%
%ADD14C,0.005900*%
%ADD15C,0.012000*%
%ADD16C,0.004500*%
%ADD17C,0.007900*%
%ADD18C,0.000800*%
%ADD19C,0.006000*%
G04 APERTURE END LIST*
G54D10*
G54D11*
X1146Y9486D02*
X1027Y9486D01*
X1027Y9736D01*
X1217Y9558D02*
X1336Y9558D01*
X1194Y9486D02*
X1277Y9736D01*
X1360Y9486D01*
X1432Y9498D02*
X1467Y9486D01*
X1527Y9486D01*
X1551Y9498D01*
X1563Y9510D01*
X1575Y9534D01*
X1575Y9558D01*
X1563Y9582D01*
X1551Y9594D01*
X1527Y9605D01*
X1479Y9617D01*
X1455Y9629D01*
X1444Y9641D01*
X1432Y9665D01*
X1432Y9689D01*
X1444Y9713D01*
X1455Y9725D01*
X1479Y9736D01*
X1539Y9736D01*
X1575Y9725D01*
X1682Y9617D02*
X1765Y9617D01*
X1801Y9486D02*
X1682Y9486D01*
X1682Y9736D01*
X1801Y9736D01*
X2051Y9486D02*
X1967Y9605D01*
X1908Y9486D02*
X1908Y9736D01*
X2003Y9736D01*
X2027Y9725D01*
X2039Y9713D01*
X2051Y9689D01*
X2051Y9653D01*
X2039Y9629D01*
X2027Y9617D01*
X2003Y9605D01*
X1908Y9605D01*
X2491Y9486D02*
X2408Y9605D01*
X2348Y9486D02*
X2348Y9736D01*
X2444Y9736D01*
X2467Y9725D01*
X2479Y9713D01*
X2491Y9689D01*
X2491Y9653D01*
X2479Y9629D01*
X2467Y9617D01*
X2444Y9605D01*
X2348Y9605D01*
X2586Y9558D02*
X2705Y9558D01*
X2563Y9486D02*
X2646Y9736D01*
X2729Y9486D01*
X2860Y9605D02*
X2860Y9486D01*
X2777Y9736D02*
X2860Y9605D01*
X2944Y9736D01*
X3205Y9498D02*
X3241Y9486D01*
X3301Y9486D01*
X3325Y9498D01*
X3336Y9510D01*
X3348Y9534D01*
X3348Y9558D01*
X3336Y9582D01*
X3325Y9594D01*
X3301Y9605D01*
X3253Y9617D01*
X3229Y9629D01*
X3217Y9641D01*
X3205Y9665D01*
X3205Y9689D01*
X3217Y9713D01*
X3229Y9725D01*
X3253Y9736D01*
X3313Y9736D01*
X3348Y9725D01*
X3503Y9736D02*
X3551Y9736D01*
X3575Y9725D01*
X3598Y9701D01*
X3610Y9653D01*
X3610Y9570D01*
X3598Y9522D01*
X3575Y9498D01*
X3551Y9486D01*
X3503Y9486D01*
X3479Y9498D01*
X3455Y9522D01*
X3444Y9570D01*
X3444Y9653D01*
X3455Y9701D01*
X3479Y9725D01*
X3503Y9736D01*
X3717Y9736D02*
X3717Y9534D01*
X3729Y9510D01*
X3741Y9498D01*
X3765Y9486D01*
X3813Y9486D01*
X3836Y9498D01*
X3848Y9510D01*
X3860Y9534D01*
X3860Y9736D01*
X3979Y9486D02*
X3979Y9736D01*
X4122Y9486D01*
X4122Y9736D01*
X4241Y9486D02*
X4241Y9736D01*
X4301Y9736D01*
X4336Y9725D01*
X4360Y9701D01*
X4372Y9677D01*
X4384Y9629D01*
X4384Y9594D01*
X4372Y9546D01*
X4360Y9522D01*
X4336Y9498D01*
X4301Y9486D01*
X4241Y9486D01*
X622Y9217D02*
X658Y9205D01*
X670Y9194D01*
X682Y9170D01*
X682Y9134D01*
X670Y9110D01*
X658Y9098D01*
X634Y9086D01*
X539Y9086D01*
X539Y9336D01*
X622Y9336D01*
X646Y9325D01*
X658Y9313D01*
X670Y9289D01*
X670Y9265D01*
X658Y9241D01*
X646Y9229D01*
X622Y9217D01*
X539Y9217D01*
X777Y9158D02*
X896Y9158D01*
X753Y9086D02*
X836Y9336D01*
X920Y9086D01*
X1146Y9086D02*
X1063Y9205D01*
X1003Y9086D02*
X1003Y9336D01*
X1098Y9336D01*
X1122Y9325D01*
X1134Y9313D01*
X1146Y9289D01*
X1146Y9253D01*
X1134Y9229D01*
X1122Y9217D01*
X1098Y9205D01*
X1003Y9205D01*
X1217Y9336D02*
X1360Y9336D01*
X1289Y9086D02*
X1289Y9336D01*
X1634Y9086D02*
X1634Y9336D01*
X1717Y9158D01*
X1801Y9336D01*
X1801Y9086D01*
X1908Y9158D02*
X2027Y9158D01*
X1884Y9086D02*
X1967Y9336D01*
X2051Y9086D01*
X2122Y9098D02*
X2158Y9086D01*
X2217Y9086D01*
X2241Y9098D01*
X2253Y9110D01*
X2265Y9134D01*
X2265Y9158D01*
X2253Y9182D01*
X2241Y9194D01*
X2217Y9205D01*
X2170Y9217D01*
X2146Y9229D01*
X2134Y9241D01*
X2122Y9265D01*
X2122Y9289D01*
X2134Y9313D01*
X2146Y9325D01*
X2170Y9336D01*
X2229Y9336D01*
X2265Y9325D01*
X2360Y9098D02*
X2396Y9086D01*
X2455Y9086D01*
X2479Y9098D01*
X2491Y9110D01*
X2503Y9134D01*
X2503Y9158D01*
X2491Y9182D01*
X2479Y9194D01*
X2455Y9205D01*
X2408Y9217D01*
X2384Y9229D01*
X2372Y9241D01*
X2360Y9265D01*
X2360Y9289D01*
X2372Y9313D01*
X2384Y9325D01*
X2408Y9336D01*
X2467Y9336D01*
X2503Y9325D01*
X2610Y9217D02*
X2694Y9217D01*
X2729Y9086D02*
X2610Y9086D01*
X2610Y9336D01*
X2729Y9336D01*
X2884Y9205D02*
X2884Y9086D01*
X2801Y9336D02*
X2884Y9205D01*
X2967Y9336D01*
X3229Y9313D02*
X3241Y9325D01*
X3265Y9336D01*
X3325Y9336D01*
X3348Y9325D01*
X3360Y9313D01*
X3372Y9289D01*
X3372Y9265D01*
X3360Y9229D01*
X3217Y9086D01*
X3372Y9086D01*
X3527Y9336D02*
X3551Y9336D01*
X3575Y9325D01*
X3586Y9313D01*
X3598Y9289D01*
X3610Y9241D01*
X3610Y9182D01*
X3598Y9134D01*
X3586Y9110D01*
X3575Y9098D01*
X3551Y9086D01*
X3527Y9086D01*
X3503Y9098D01*
X3491Y9110D01*
X3479Y9134D01*
X3467Y9182D01*
X3467Y9241D01*
X3479Y9289D01*
X3491Y9313D01*
X3503Y9325D01*
X3527Y9336D01*
X3848Y9086D02*
X3705Y9086D01*
X3777Y9086D02*
X3777Y9336D01*
X3753Y9301D01*
X3729Y9277D01*
X3705Y9265D01*
X3932Y9336D02*
X4086Y9336D01*
X4003Y9241D01*
X4039Y9241D01*
X4063Y9229D01*
X4075Y9217D01*
X4086Y9194D01*
X4086Y9134D01*
X4075Y9110D01*
X4063Y9098D01*
X4039Y9086D01*
X3967Y9086D01*
X3944Y9098D01*
X3932Y9110D01*
X4194Y9182D02*
X4384Y9182D01*
X4634Y9086D02*
X4491Y9086D01*
X4563Y9086D02*
X4563Y9336D01*
X4539Y9301D01*
X4515Y9277D01*
X4491Y9265D01*
X4789Y9336D02*
X4813Y9336D01*
X4836Y9325D01*
X4848Y9313D01*
X4860Y9289D01*
X4872Y9241D01*
X4872Y9182D01*
X4860Y9134D01*
X4848Y9110D01*
X4836Y9098D01*
X4813Y9086D01*
X4789Y9086D01*
X4765Y9098D01*
X4753Y9110D01*
X4741Y9134D01*
X4729Y9182D01*
X4729Y9241D01*
X4741Y9289D01*
X4753Y9313D01*
X4765Y9325D01*
X4789Y9336D01*
G54D12*
X1825Y3919D02*
X1825Y1951D01*
X6352Y2935D02*
G75*
G03X6352Y2935I-2362J0D01*
G74*
G01*
X7120Y4423D02*
G75*
G03X7120Y4423I-39J0D01*
G74*
G01*
X8774Y5722D02*
X8774Y4148D01*
X8774Y4148D02*
X6806Y4148D01*
X6806Y4148D02*
X6806Y5722D01*
X6806Y5722D02*
X8774Y5722D01*
G54D11*
X7740Y2385D02*
X6840Y2385D01*
X6840Y2385D02*
X6840Y2885D01*
X6840Y2885D02*
X7740Y2885D01*
X7740Y2885D02*
X7740Y2385D01*
X7340Y8885D02*
X8240Y8885D01*
X8240Y8885D02*
X8240Y8385D01*
X8240Y8385D02*
X7340Y8385D01*
X7340Y8385D02*
X7340Y8885D01*
X6840Y8385D02*
X5940Y8385D01*
X5940Y8385D02*
X5940Y8885D01*
X5940Y8885D02*
X6840Y8885D01*
X6840Y8885D02*
X6840Y8385D01*
G54D12*
X5002Y6369D02*
X3624Y6369D01*
X5356Y7707D02*
X5356Y6763D01*
X3624Y8101D02*
X4962Y8101D01*
X4962Y8101D02*
X5356Y7707D01*
X5002Y6369D02*
X5356Y6763D01*
X3624Y6369D02*
X3624Y8101D01*
G54D13*
X8084Y7666D02*
G75*
G03X8084Y7666I-8J0D01*
G74*
G01*
X8037Y7717D02*
X8037Y7403D01*
X7643Y7717D02*
X7643Y7403D01*
X8076Y7560D02*
G75*
G03X8155Y7481I79J0D01*
G74*
G01*
X8155Y7639D02*
G75*
G03X8076Y7560I0J-79D01*
G74*
G01*
X7604Y7560D02*
G75*
G03X7525Y7639I-79J0D01*
G74*
G01*
X7525Y7481D02*
G75*
G03X7604Y7560I0J79D01*
G74*
G01*
G54D14*
X7525Y7717D02*
X8155Y7717D01*
X8155Y7717D02*
X8155Y7403D01*
X8155Y7403D02*
X7525Y7403D01*
X7525Y7403D02*
X7525Y7717D01*
G54D15*
X4232Y2135D02*
X4261Y2220D01*
X4261Y2363D01*
X4232Y2420D01*
X4204Y2449D01*
X4147Y2477D01*
X4090Y2477D01*
X4032Y2449D01*
X4004Y2420D01*
X3975Y2363D01*
X3947Y2249D01*
X3918Y2192D01*
X3890Y2163D01*
X3832Y2135D01*
X3775Y2135D01*
X3718Y2163D01*
X3690Y2192D01*
X3661Y2249D01*
X3661Y2392D01*
X3690Y2477D01*
X3661Y2677D02*
X4261Y2820D01*
X3832Y2935D01*
X4261Y3049D01*
X3661Y3192D01*
X4261Y3735D02*
X4261Y3392D01*
X4261Y3563D02*
X3661Y3563D01*
X3747Y3506D01*
X3804Y3449D01*
X3832Y3392D01*
G54D11*
X6550Y4991D02*
X6750Y4991D01*
X6650Y4641D02*
X6650Y4991D01*
X6849Y4658D02*
X6899Y4641D01*
X6983Y4641D01*
X7016Y4658D01*
X7033Y4675D01*
X7049Y4708D01*
X7049Y4741D01*
X7033Y4775D01*
X7016Y4791D01*
X6983Y4808D01*
X6916Y4825D01*
X6883Y4841D01*
X6866Y4858D01*
X6849Y4891D01*
X6849Y4925D01*
X6866Y4958D01*
X6883Y4975D01*
X6916Y4991D01*
X6999Y4991D01*
X7049Y4975D01*
X7366Y4991D02*
X7200Y4991D01*
X7183Y4825D01*
X7200Y4841D01*
X7233Y4858D01*
X7316Y4858D01*
X7350Y4841D01*
X7366Y4825D01*
X7383Y4791D01*
X7383Y4708D01*
X7366Y4675D01*
X7350Y4658D01*
X7316Y4641D01*
X7233Y4641D01*
X7200Y4658D01*
X7183Y4675D01*
X7700Y4991D02*
X7533Y4991D01*
X7516Y4825D01*
X7533Y4841D01*
X7566Y4858D01*
X7650Y4858D01*
X7683Y4841D01*
X7700Y4825D01*
X7716Y4791D01*
X7716Y4708D01*
X7700Y4675D01*
X7683Y4658D01*
X7650Y4641D01*
X7566Y4641D01*
X7533Y4658D01*
X7516Y4675D01*
X8033Y4991D02*
X7866Y4991D01*
X7850Y4825D01*
X7866Y4841D01*
X7900Y4858D01*
X7983Y4858D01*
X8016Y4841D01*
X8033Y4825D01*
X8050Y4791D01*
X8050Y4708D01*
X8033Y4675D01*
X8016Y4658D01*
X7983Y4641D01*
X7900Y4641D01*
X7866Y4658D01*
X7850Y4675D01*
X8400Y4675D02*
X8383Y4658D01*
X8333Y4641D01*
X8300Y4641D01*
X8250Y4658D01*
X8216Y4691D01*
X8200Y4725D01*
X8183Y4791D01*
X8183Y4841D01*
X8200Y4908D01*
X8216Y4941D01*
X8250Y4975D01*
X8300Y4991D01*
X8333Y4991D01*
X8383Y4975D01*
X8400Y4958D01*
X8550Y4641D02*
X8550Y4991D01*
X8633Y4991D01*
X8683Y4975D01*
X8716Y4941D01*
X8733Y4908D01*
X8750Y4841D01*
X8750Y4791D01*
X8733Y4725D01*
X8716Y4691D01*
X8683Y4658D01*
X8633Y4641D01*
X8550Y4641D01*
X8850Y4991D02*
X9050Y4991D01*
X8950Y4641D02*
X8950Y4991D01*
G54D16*
X6460Y2463D02*
X6451Y2454D01*
X6425Y2444D01*
X6408Y2444D01*
X6382Y2454D01*
X6365Y2473D01*
X6357Y2492D01*
X6348Y2530D01*
X6348Y2558D01*
X6357Y2596D01*
X6365Y2615D01*
X6382Y2635D01*
X6408Y2644D01*
X6425Y2644D01*
X6451Y2635D01*
X6460Y2625D01*
X6631Y2444D02*
X6528Y2444D01*
X6580Y2444D02*
X6580Y2644D01*
X6562Y2615D01*
X6545Y2596D01*
X6528Y2587D01*
X7088Y2544D02*
X6985Y2544D01*
X7037Y2544D02*
X7037Y2744D01*
X7019Y2715D01*
X7002Y2696D01*
X6985Y2687D01*
X7200Y2744D02*
X7217Y2744D01*
X7234Y2735D01*
X7242Y2725D01*
X7251Y2706D01*
X7260Y2668D01*
X7260Y2620D01*
X7251Y2582D01*
X7242Y2563D01*
X7234Y2554D01*
X7217Y2544D01*
X7200Y2544D01*
X7182Y2554D01*
X7174Y2563D01*
X7165Y2582D01*
X7157Y2620D01*
X7157Y2668D01*
X7165Y2706D01*
X7174Y2725D01*
X7182Y2735D01*
X7200Y2744D01*
X7371Y2744D02*
X7388Y2744D01*
X7405Y2735D01*
X7414Y2725D01*
X7422Y2706D01*
X7431Y2668D01*
X7431Y2620D01*
X7422Y2582D01*
X7414Y2563D01*
X7405Y2554D01*
X7388Y2544D01*
X7371Y2544D01*
X7354Y2554D01*
X7345Y2563D01*
X7337Y2582D01*
X7328Y2620D01*
X7328Y2668D01*
X7337Y2706D01*
X7345Y2725D01*
X7354Y2735D01*
X7371Y2744D01*
X7508Y2677D02*
X7508Y2544D01*
X7508Y2658D02*
X7517Y2668D01*
X7534Y2677D01*
X7560Y2677D01*
X7577Y2668D01*
X7585Y2649D01*
X7585Y2544D01*
X7652Y8677D02*
X7652Y8544D01*
X7610Y8754D02*
X7567Y8611D01*
X7678Y8611D01*
X7730Y8744D02*
X7850Y8744D01*
X7772Y8544D01*
X7952Y8744D02*
X7970Y8744D01*
X7987Y8735D01*
X7995Y8725D01*
X8004Y8706D01*
X8012Y8668D01*
X8012Y8620D01*
X8004Y8582D01*
X7995Y8563D01*
X7987Y8554D01*
X7970Y8544D01*
X7952Y8544D01*
X7935Y8554D01*
X7927Y8563D01*
X7918Y8582D01*
X7910Y8620D01*
X7910Y8668D01*
X7918Y8706D01*
X7927Y8725D01*
X7935Y8735D01*
X7952Y8744D01*
X6077Y8725D02*
X6085Y8735D01*
X6102Y8744D01*
X6145Y8744D01*
X6162Y8735D01*
X6171Y8725D01*
X6180Y8706D01*
X6180Y8687D01*
X6171Y8658D01*
X6068Y8544D01*
X6180Y8544D01*
X6248Y8725D02*
X6257Y8735D01*
X6274Y8744D01*
X6317Y8744D01*
X6334Y8735D01*
X6342Y8725D01*
X6351Y8706D01*
X6351Y8687D01*
X6342Y8658D01*
X6240Y8544D01*
X6351Y8544D01*
X6462Y8744D02*
X6480Y8744D01*
X6497Y8735D01*
X6505Y8725D01*
X6514Y8706D01*
X6522Y8668D01*
X6522Y8620D01*
X6514Y8582D01*
X6505Y8563D01*
X6497Y8554D01*
X6480Y8544D01*
X6462Y8544D01*
X6445Y8554D01*
X6437Y8563D01*
X6428Y8582D01*
X6420Y8620D01*
X6420Y8668D01*
X6428Y8706D01*
X6437Y8725D01*
X6445Y8735D01*
X6462Y8744D01*
X6600Y8544D02*
X6600Y8744D01*
X6702Y8544D02*
X6625Y8658D01*
X6702Y8744D02*
X6600Y8630D01*
X4374Y7144D02*
X4271Y7144D01*
X4322Y7144D02*
X4322Y7344D01*
X4305Y7315D01*
X4288Y7296D01*
X4271Y7287D01*
X4485Y7344D02*
X4502Y7344D01*
X4520Y7335D01*
X4528Y7325D01*
X4537Y7306D01*
X4545Y7268D01*
X4545Y7220D01*
X4537Y7182D01*
X4528Y7163D01*
X4520Y7154D01*
X4502Y7144D01*
X4485Y7144D01*
X4468Y7154D01*
X4460Y7163D01*
X4451Y7182D01*
X4442Y7220D01*
X4442Y7268D01*
X4451Y7306D01*
X4460Y7325D01*
X4468Y7335D01*
X4485Y7344D01*
X4700Y7277D02*
X4700Y7144D01*
X4622Y7277D02*
X4622Y7173D01*
X4631Y7154D01*
X4648Y7144D01*
X4674Y7144D01*
X4691Y7154D01*
X4700Y7163D01*
G54D17*
X4733Y7600D02*
X5034Y7600D01*
X4884Y7450D02*
X4884Y7750D01*
G54D13*
X7777Y7515D02*
X7730Y7515D01*
X7730Y7613D01*
X7809Y7567D02*
X7842Y7567D01*
X7856Y7515D02*
X7809Y7515D01*
X7809Y7613D01*
X7856Y7613D01*
X7898Y7515D02*
X7898Y7613D01*
X7921Y7613D01*
X7935Y7609D01*
X7945Y7599D01*
X7949Y7590D01*
X7954Y7571D01*
X7954Y7557D01*
X7949Y7539D01*
X7945Y7529D01*
X7935Y7520D01*
X7921Y7515D01*
X7898Y7515D01*
G54D18*
X7678Y7464D02*
X7701Y7464D01*
X7673Y7450D02*
X7690Y7500D01*
X7706Y7450D01*
X8001Y7636D02*
X7999Y7633D01*
X7991Y7631D01*
X7987Y7631D01*
X7980Y7633D01*
X7975Y7638D01*
X7972Y7643D01*
X7970Y7652D01*
X7970Y7659D01*
X7972Y7669D01*
X7975Y7674D01*
X7980Y7679D01*
X7987Y7681D01*
X7991Y7681D01*
X7999Y7679D01*
X8001Y7676D01*
G54D19*
X3021Y5678D02*
X3064Y5664D01*
X3135Y5664D01*
X3164Y5678D01*
X3178Y5692D01*
X3192Y5721D01*
X3192Y5750D01*
X3178Y5778D01*
X3164Y5792D01*
X3135Y5807D01*
X3078Y5821D01*
X3050Y5835D01*
X3035Y5850D01*
X3021Y5878D01*
X3021Y5907D01*
X3035Y5935D01*
X3050Y5950D01*
X3078Y5964D01*
X3150Y5964D01*
X3192Y5950D01*
X3321Y5664D02*
X3321Y5964D01*
X3435Y5964D01*
X3464Y5950D01*
X3478Y5935D01*
X3492Y5907D01*
X3492Y5864D01*
X3478Y5835D01*
X3464Y5821D01*
X3435Y5807D01*
X3321Y5807D01*
X3778Y5664D02*
X3607Y5664D01*
X3692Y5664D02*
X3692Y5964D01*
X3664Y5921D01*
X3635Y5892D01*
X3607Y5878D01*
G54D11*
X392Y4635D02*
X364Y4650D01*
X350Y4664D01*
X335Y4692D01*
X335Y4707D01*
X350Y4735D01*
X364Y4750D01*
X392Y4764D01*
X450Y4764D01*
X478Y4750D01*
X492Y4735D01*
X507Y4707D01*
X507Y4692D01*
X492Y4664D01*
X478Y4650D01*
X450Y4635D01*
X392Y4635D01*
X364Y4621D01*
X350Y4607D01*
X335Y4578D01*
X335Y4521D01*
X350Y4492D01*
X364Y4478D01*
X392Y4464D01*
X450Y4464D01*
X478Y4478D01*
X492Y4492D01*
X507Y4521D01*
X507Y4578D01*
X492Y4607D01*
X478Y4621D01*
X450Y4635D01*
X621Y4464D02*
X692Y4464D01*
X692Y4521D01*
X664Y4535D01*
X635Y4564D01*
X621Y4607D01*
X621Y4678D01*
X635Y4721D01*
X664Y4750D01*
X707Y4764D01*
X764Y4764D01*
X807Y4750D01*
X835Y4721D01*
X850Y4678D01*
X850Y4607D01*
X835Y4564D01*
X807Y4535D01*
X778Y4521D01*
X778Y4464D01*
X850Y4464D01*
X1192Y4478D02*
X1235Y4464D01*
X1307Y4464D01*
X1335Y4478D01*
X1350Y4492D01*
X1364Y4521D01*
X1364Y4550D01*
X1350Y4578D01*
X1335Y4592D01*
X1307Y4607D01*
X1250Y4621D01*
X1221Y4635D01*
X1207Y4650D01*
X1192Y4678D01*
X1192Y4707D01*
X1207Y4735D01*
X1221Y4750D01*
X1250Y4764D01*
X1321Y4764D01*
X1364Y4750D01*
X1492Y4464D02*
X1492Y4764D01*
X1607Y4764D01*
X1635Y4750D01*
X1649Y4735D01*
X1664Y4707D01*
X1664Y4664D01*
X1649Y4635D01*
X1635Y4621D01*
X1607Y4607D01*
X1492Y4607D01*
X1792Y4464D02*
X1792Y4764D01*
X1964Y4464D02*
X1835Y4635D01*
X1964Y4764D02*
X1792Y4592D01*
X2264Y4464D02*
X2164Y4607D01*
X2092Y4464D02*
X2092Y4764D01*
X2207Y4764D01*
X2235Y4750D01*
X2249Y4735D01*
X2264Y4707D01*
X2264Y4664D01*
X2249Y4635D01*
X2235Y4621D01*
X2207Y4607D01*
X2092Y4607D01*
M02*
