G04 (created by PCBNEW (2013-09-18 BZR 4323)-product) date Mon 07 Oct 2013 05:14:51 PM PDT*
%MOIN*%
G04 Gerber Fmt 3.4, Leading zero omitted, Abs format*
%FSLAX34Y34*%
G01*
G70*
G90*
G04 APERTURE LIST*
%ADD10C,0.005906*%
%ADD11C,0.010000*%
%ADD12C,0.006000*%
G04 APERTURE END LIST*
G54D10*
G54D11*
X3252Y8671D02*
X2947Y8671D01*
X3100Y8519D02*
X3100Y8823D01*
G54D12*
X1735Y8921D02*
X1692Y8907D01*
X1678Y8892D01*
X1664Y8864D01*
X1664Y8821D01*
X1678Y8792D01*
X1692Y8778D01*
X1721Y8764D01*
X1835Y8764D01*
X1835Y9064D01*
X1735Y9064D01*
X1707Y9050D01*
X1692Y9035D01*
X1678Y9007D01*
X1678Y8978D01*
X1692Y8950D01*
X1707Y8935D01*
X1735Y8921D01*
X1835Y8921D01*
X1578Y9064D02*
X1407Y9064D01*
X1492Y8764D02*
X1492Y9064D01*
X1150Y8764D02*
X1321Y8764D01*
X1235Y8764D02*
X1235Y9064D01*
X1264Y9021D01*
X1292Y8992D01*
X1321Y8978D01*
X2249Y6621D02*
X2207Y6607D01*
X2192Y6592D01*
X2178Y6564D01*
X2178Y6521D01*
X2192Y6492D01*
X2207Y6478D01*
X2235Y6464D01*
X2349Y6464D01*
X2349Y6764D01*
X2249Y6764D01*
X2221Y6750D01*
X2207Y6735D01*
X2192Y6707D01*
X2192Y6678D01*
X2207Y6650D01*
X2221Y6635D01*
X2249Y6621D01*
X2349Y6621D01*
X2064Y6550D02*
X1921Y6550D01*
X2092Y6464D02*
X1992Y6764D01*
X1892Y6464D01*
X1835Y6764D02*
X1664Y6764D01*
X1749Y6464D02*
X1749Y6764D01*
X1607Y6764D02*
X1435Y6764D01*
X1521Y6464D02*
X1521Y6764D01*
X1335Y6621D02*
X1235Y6621D01*
X1192Y6464D02*
X1335Y6464D01*
X1335Y6764D01*
X1192Y6764D01*
X892Y6464D02*
X992Y6607D01*
X1064Y6464D02*
X1064Y6764D01*
X950Y6764D01*
X921Y6750D01*
X907Y6735D01*
X892Y6707D01*
X892Y6664D01*
X907Y6635D01*
X921Y6621D01*
X950Y6607D01*
X1064Y6607D01*
X707Y6607D02*
X707Y6464D01*
X807Y6764D02*
X707Y6607D01*
X607Y6764D01*
M02*
