G04 (created by PCBNEW-RS274X (2012-apr-16-27)-stable) date Fri 18 Jan 2013 09:07:11 PM PST*
G01*
G70*
G90*
%MOIN*%
G04 Gerber Fmt 3.4, Leading zero omitted, Abs format*
%FSLAX34Y34*%
G04 APERTURE LIST*
%ADD10C,0.006000*%
%ADD11C,0.002000*%
%ADD12R,0.023600X0.055100*%
%ADD13R,0.025000X0.045000*%
%ADD14R,0.060000X0.060000*%
%ADD15C,0.060000*%
%ADD16R,0.078700X0.039400*%
%ADD17C,0.040000*%
%ADD18R,0.063000X0.039400*%
%ADD19R,0.037400X0.043300*%
%ADD20C,0.008000*%
%ADD21C,0.010000*%
G04 APERTURE END LIST*
G54D10*
G54D11*
X57316Y-41648D02*
X57260Y-41648D01*
X57260Y-41530D01*
X57350Y-41614D02*
X57407Y-41614D01*
X57339Y-41648D02*
X57379Y-41530D01*
X57418Y-41648D01*
X57451Y-41642D02*
X57468Y-41648D01*
X57496Y-41648D01*
X57508Y-41642D01*
X57513Y-41637D01*
X57519Y-41625D01*
X57519Y-41614D01*
X57513Y-41603D01*
X57508Y-41597D01*
X57496Y-41592D01*
X57474Y-41586D01*
X57463Y-41580D01*
X57457Y-41575D01*
X57451Y-41563D01*
X57451Y-41552D01*
X57457Y-41541D01*
X57463Y-41535D01*
X57474Y-41530D01*
X57502Y-41530D01*
X57519Y-41535D01*
X57569Y-41586D02*
X57608Y-41586D01*
X57625Y-41648D02*
X57569Y-41648D01*
X57569Y-41530D01*
X57625Y-41530D01*
X57744Y-41648D02*
X57704Y-41592D01*
X57676Y-41648D02*
X57676Y-41530D01*
X57721Y-41530D01*
X57732Y-41535D01*
X57738Y-41541D01*
X57744Y-41552D01*
X57744Y-41569D01*
X57738Y-41580D01*
X57732Y-41586D01*
X57721Y-41592D01*
X57676Y-41592D01*
X57952Y-41648D02*
X57912Y-41592D01*
X57884Y-41648D02*
X57884Y-41530D01*
X57929Y-41530D01*
X57940Y-41535D01*
X57946Y-41541D01*
X57952Y-41552D01*
X57952Y-41569D01*
X57946Y-41580D01*
X57940Y-41586D01*
X57929Y-41592D01*
X57884Y-41592D01*
X57996Y-41614D02*
X58053Y-41614D01*
X57985Y-41648D02*
X58025Y-41530D01*
X58064Y-41648D01*
X58126Y-41592D02*
X58126Y-41648D01*
X58086Y-41530D02*
X58126Y-41592D01*
X58165Y-41530D01*
X58288Y-41642D02*
X58305Y-41648D01*
X58333Y-41648D01*
X58345Y-41642D01*
X58350Y-41637D01*
X58356Y-41625D01*
X58356Y-41614D01*
X58350Y-41603D01*
X58345Y-41597D01*
X58333Y-41592D01*
X58311Y-41586D01*
X58300Y-41580D01*
X58294Y-41575D01*
X58288Y-41563D01*
X58288Y-41552D01*
X58294Y-41541D01*
X58300Y-41535D01*
X58311Y-41530D01*
X58339Y-41530D01*
X58356Y-41535D01*
X58429Y-41530D02*
X58451Y-41530D01*
X58462Y-41535D01*
X58474Y-41547D01*
X58479Y-41569D01*
X58479Y-41608D01*
X58474Y-41631D01*
X58462Y-41642D01*
X58451Y-41648D01*
X58429Y-41648D01*
X58417Y-41642D01*
X58406Y-41631D01*
X58400Y-41608D01*
X58400Y-41569D01*
X58406Y-41547D01*
X58417Y-41535D01*
X58429Y-41530D01*
X58530Y-41530D02*
X58530Y-41625D01*
X58536Y-41637D01*
X58541Y-41642D01*
X58553Y-41648D01*
X58575Y-41648D01*
X58586Y-41642D01*
X58592Y-41637D01*
X58598Y-41625D01*
X58598Y-41530D01*
X58654Y-41648D02*
X58654Y-41530D01*
X58722Y-41648D01*
X58722Y-41530D01*
X58778Y-41648D02*
X58778Y-41530D01*
X58806Y-41530D01*
X58823Y-41535D01*
X58834Y-41547D01*
X58840Y-41558D01*
X58846Y-41580D01*
X58846Y-41597D01*
X58840Y-41620D01*
X58834Y-41631D01*
X58823Y-41642D01*
X58806Y-41648D01*
X58778Y-41648D01*
X57071Y-41771D02*
X57088Y-41777D01*
X57094Y-41782D01*
X57100Y-41793D01*
X57100Y-41810D01*
X57094Y-41822D01*
X57088Y-41827D01*
X57077Y-41833D01*
X57032Y-41833D01*
X57032Y-41715D01*
X57071Y-41715D01*
X57083Y-41720D01*
X57088Y-41726D01*
X57094Y-41737D01*
X57094Y-41748D01*
X57088Y-41760D01*
X57083Y-41765D01*
X57071Y-41771D01*
X57032Y-41771D01*
X57144Y-41799D02*
X57201Y-41799D01*
X57133Y-41833D02*
X57173Y-41715D01*
X57212Y-41833D01*
X57319Y-41833D02*
X57279Y-41777D01*
X57251Y-41833D02*
X57251Y-41715D01*
X57296Y-41715D01*
X57307Y-41720D01*
X57313Y-41726D01*
X57319Y-41737D01*
X57319Y-41754D01*
X57313Y-41765D01*
X57307Y-41771D01*
X57296Y-41777D01*
X57251Y-41777D01*
X57352Y-41715D02*
X57420Y-41715D01*
X57386Y-41833D02*
X57386Y-41715D01*
X57549Y-41833D02*
X57549Y-41715D01*
X57588Y-41799D01*
X57628Y-41715D01*
X57628Y-41833D01*
X57678Y-41799D02*
X57735Y-41799D01*
X57667Y-41833D02*
X57707Y-41715D01*
X57746Y-41833D01*
X57779Y-41827D02*
X57796Y-41833D01*
X57824Y-41833D01*
X57836Y-41827D01*
X57841Y-41822D01*
X57847Y-41810D01*
X57847Y-41799D01*
X57841Y-41788D01*
X57836Y-41782D01*
X57824Y-41777D01*
X57802Y-41771D01*
X57791Y-41765D01*
X57785Y-41760D01*
X57779Y-41748D01*
X57779Y-41737D01*
X57785Y-41726D01*
X57791Y-41720D01*
X57802Y-41715D01*
X57830Y-41715D01*
X57847Y-41720D01*
X57891Y-41827D02*
X57908Y-41833D01*
X57936Y-41833D01*
X57948Y-41827D01*
X57953Y-41822D01*
X57959Y-41810D01*
X57959Y-41799D01*
X57953Y-41788D01*
X57948Y-41782D01*
X57936Y-41777D01*
X57914Y-41771D01*
X57903Y-41765D01*
X57897Y-41760D01*
X57891Y-41748D01*
X57891Y-41737D01*
X57897Y-41726D01*
X57903Y-41720D01*
X57914Y-41715D01*
X57942Y-41715D01*
X57959Y-41720D01*
X58009Y-41771D02*
X58048Y-41771D01*
X58065Y-41833D02*
X58009Y-41833D01*
X58009Y-41715D01*
X58065Y-41715D01*
X58139Y-41777D02*
X58139Y-41833D01*
X58099Y-41715D02*
X58139Y-41777D01*
X58178Y-41715D01*
X58301Y-41726D02*
X58307Y-41720D01*
X58318Y-41715D01*
X58346Y-41715D01*
X58358Y-41720D01*
X58363Y-41726D01*
X58369Y-41737D01*
X58369Y-41748D01*
X58363Y-41765D01*
X58296Y-41833D01*
X58369Y-41833D01*
X58442Y-41715D02*
X58453Y-41715D01*
X58464Y-41720D01*
X58470Y-41726D01*
X58475Y-41737D01*
X58481Y-41760D01*
X58481Y-41788D01*
X58475Y-41810D01*
X58470Y-41822D01*
X58464Y-41827D01*
X58453Y-41833D01*
X58442Y-41833D01*
X58430Y-41827D01*
X58425Y-41822D01*
X58419Y-41810D01*
X58413Y-41788D01*
X58413Y-41760D01*
X58419Y-41737D01*
X58425Y-41726D01*
X58430Y-41720D01*
X58442Y-41715D01*
X58593Y-41833D02*
X58525Y-41833D01*
X58559Y-41833D02*
X58559Y-41715D01*
X58548Y-41732D01*
X58537Y-41743D01*
X58525Y-41748D01*
X58632Y-41715D02*
X58705Y-41715D01*
X58666Y-41760D01*
X58682Y-41760D01*
X58694Y-41765D01*
X58699Y-41771D01*
X58705Y-41782D01*
X58705Y-41810D01*
X58699Y-41822D01*
X58694Y-41827D01*
X58682Y-41833D01*
X58649Y-41833D01*
X58637Y-41827D01*
X58632Y-41822D01*
X58755Y-41788D02*
X58845Y-41788D01*
X58924Y-41715D02*
X58935Y-41715D01*
X58946Y-41720D01*
X58952Y-41726D01*
X58957Y-41737D01*
X58963Y-41760D01*
X58963Y-41788D01*
X58957Y-41810D01*
X58952Y-41822D01*
X58946Y-41827D01*
X58935Y-41833D01*
X58924Y-41833D01*
X58912Y-41827D01*
X58907Y-41822D01*
X58901Y-41810D01*
X58895Y-41788D01*
X58895Y-41760D01*
X58901Y-41737D01*
X58907Y-41726D01*
X58912Y-41720D01*
X58924Y-41715D01*
X59075Y-41833D02*
X59007Y-41833D01*
X59041Y-41833D02*
X59041Y-41715D01*
X59030Y-41732D01*
X59019Y-41743D01*
X59007Y-41748D01*
G54D12*
X62400Y-44875D03*
X62400Y-46975D03*
X62900Y-44875D03*
X63400Y-44875D03*
X63900Y-44875D03*
X62900Y-46975D03*
X63400Y-46975D03*
X63900Y-46975D03*
G54D13*
X62950Y-48225D03*
X62350Y-48225D03*
X62850Y-42225D03*
X63450Y-42225D03*
X62050Y-42225D03*
X61450Y-42225D03*
G54D14*
X57750Y-44925D03*
G54D15*
X56750Y-44925D03*
G54D14*
X57750Y-43325D03*
G54D15*
X56750Y-43325D03*
G54D16*
X59063Y-43625D03*
X60637Y-43625D03*
G54D17*
X60334Y-46941D03*
X60334Y-48909D03*
X58366Y-48909D03*
X58366Y-46941D03*
G54D18*
X63050Y-43425D03*
G54D19*
X62056Y-43110D03*
X64044Y-43740D03*
X62056Y-43740D03*
X64044Y-43110D03*
G54D20*
X59800Y-42825D02*
X59800Y-44525D01*
X63066Y-48909D02*
X60334Y-48909D01*
X60334Y-48909D02*
X58366Y-48909D01*
X63900Y-46975D02*
X63900Y-48075D01*
X63900Y-48075D02*
X63066Y-48909D01*
X62400Y-44875D02*
X60150Y-44875D01*
X59800Y-44525D02*
X60150Y-44875D01*
X63800Y-41525D02*
X61100Y-41525D01*
X64750Y-42475D02*
X64750Y-44975D01*
X63900Y-45875D02*
X64750Y-45025D01*
X64750Y-45025D02*
X64750Y-44975D01*
X63900Y-45875D02*
X63900Y-46975D01*
X63800Y-41525D02*
X64750Y-42475D01*
X61100Y-41525D02*
X59800Y-42825D01*
X56750Y-44125D02*
X56750Y-44925D01*
X62350Y-47025D02*
X62400Y-46975D01*
X62350Y-48225D02*
X62350Y-47025D01*
X56750Y-43325D02*
X56750Y-44125D01*
X56750Y-44925D02*
X56750Y-46625D01*
X58350Y-48225D02*
X62350Y-48225D01*
X56750Y-46625D02*
X58350Y-48225D01*
X63050Y-43425D02*
X62650Y-43425D01*
X62071Y-43725D02*
X62056Y-43740D01*
X62350Y-43725D02*
X62071Y-43725D01*
X62650Y-43425D02*
X62350Y-43725D01*
X63900Y-44875D02*
X63900Y-44525D01*
X63050Y-43675D02*
X63050Y-43425D01*
X63900Y-44525D02*
X63050Y-43675D01*
X60334Y-46941D02*
X58366Y-46941D01*
X57750Y-46325D02*
X58366Y-46941D01*
X57750Y-44925D02*
X57750Y-46325D01*
X59063Y-43625D02*
X58700Y-43625D01*
X58400Y-43325D02*
X57750Y-43325D01*
X58700Y-43625D02*
X58400Y-43325D01*
X64550Y-44925D02*
X64550Y-42625D01*
X61100Y-43162D02*
X60637Y-43625D01*
X63650Y-41725D02*
X62850Y-41725D01*
X62850Y-41725D02*
X61450Y-41725D01*
X63400Y-46075D02*
X63400Y-46975D01*
X61450Y-42225D02*
X61450Y-41725D01*
X63400Y-46075D02*
X64550Y-44925D01*
X61450Y-42225D02*
X61150Y-42225D01*
X61100Y-42275D02*
X61100Y-43162D01*
X64550Y-42625D02*
X63650Y-41725D01*
X62850Y-41725D02*
X62850Y-42225D01*
X61150Y-42225D02*
X61100Y-42275D01*
X62900Y-48175D02*
X62950Y-48225D01*
X62900Y-46975D02*
X62900Y-48175D01*
X62050Y-42325D02*
X61550Y-42825D01*
X61550Y-42825D02*
X61550Y-44325D01*
X63400Y-45575D02*
X62900Y-46075D01*
X62900Y-46075D02*
X62900Y-46975D01*
X63400Y-44875D02*
X63400Y-45575D01*
X62050Y-42225D02*
X62050Y-42325D01*
X63400Y-44325D02*
X61550Y-44325D01*
X63400Y-44325D02*
X63400Y-44875D01*
X64044Y-43110D02*
X64044Y-42819D01*
X64044Y-42819D02*
X63450Y-42225D01*
G54D10*
G36*
X65275Y-50275D02*
X65040Y-50275D01*
X65040Y-45025D01*
X65040Y-44975D01*
X65040Y-42475D01*
X65018Y-42364D01*
X64955Y-42270D01*
X64005Y-41320D01*
X63911Y-41257D01*
X63800Y-41235D01*
X61100Y-41235D01*
X60989Y-41257D01*
X60895Y-41320D01*
X59595Y-42620D01*
X59532Y-42714D01*
X59510Y-42825D01*
X59510Y-43180D01*
X59506Y-43179D01*
X59407Y-43179D01*
X59357Y-43179D01*
X59357Y-42128D01*
X59357Y-41238D01*
X56744Y-41238D01*
X56744Y-42128D01*
X59357Y-42128D01*
X59357Y-43179D01*
X58664Y-43179D01*
X58605Y-43120D01*
X58511Y-43057D01*
X58400Y-43035D01*
X58299Y-43035D01*
X58299Y-42976D01*
X58261Y-42884D01*
X58191Y-42814D01*
X58100Y-42776D01*
X58001Y-42776D01*
X57401Y-42776D01*
X57309Y-42814D01*
X57239Y-42884D01*
X57201Y-42975D01*
X57201Y-43037D01*
X57128Y-43017D01*
X57058Y-43087D01*
X57058Y-42947D01*
X57031Y-42853D01*
X56829Y-42782D01*
X56616Y-42793D01*
X56469Y-42853D01*
X56442Y-42947D01*
X56750Y-43254D01*
X57058Y-42947D01*
X57058Y-43087D01*
X56821Y-43325D01*
X57128Y-43633D01*
X57201Y-43612D01*
X57201Y-43674D01*
X57239Y-43766D01*
X57309Y-43836D01*
X57400Y-43874D01*
X57499Y-43874D01*
X58099Y-43874D01*
X58191Y-43836D01*
X58261Y-43766D01*
X58299Y-43675D01*
X58299Y-43634D01*
X58421Y-43756D01*
X58421Y-43871D01*
X58459Y-43963D01*
X58529Y-44033D01*
X58620Y-44071D01*
X58719Y-44071D01*
X59505Y-44071D01*
X59510Y-44068D01*
X59510Y-44525D01*
X59532Y-44636D01*
X59595Y-44730D01*
X59944Y-45079D01*
X59945Y-45080D01*
X60038Y-45142D01*
X60039Y-45143D01*
X60149Y-45164D01*
X60150Y-45165D01*
X62033Y-45165D01*
X62033Y-45199D01*
X62071Y-45291D01*
X62141Y-45361D01*
X62232Y-45399D01*
X62331Y-45399D01*
X62567Y-45399D01*
X62649Y-45364D01*
X62732Y-45399D01*
X62831Y-45399D01*
X63067Y-45399D01*
X63110Y-45381D01*
X63110Y-45455D01*
X62695Y-45870D01*
X62632Y-45964D01*
X62610Y-46075D01*
X62610Y-46468D01*
X62567Y-46451D01*
X62512Y-46450D01*
X62450Y-46512D01*
X62450Y-46875D01*
X62450Y-46925D01*
X62450Y-47025D01*
X62450Y-47075D01*
X62450Y-47438D01*
X62512Y-47500D01*
X62567Y-47499D01*
X62610Y-47481D01*
X62610Y-47786D01*
X62524Y-47751D01*
X62462Y-47750D01*
X62400Y-47812D01*
X62400Y-48125D01*
X62400Y-48175D01*
X62400Y-48275D01*
X62350Y-48275D01*
X62350Y-47438D01*
X62350Y-47025D01*
X62350Y-46925D01*
X62350Y-46512D01*
X62288Y-46450D01*
X62233Y-46451D01*
X62141Y-46489D01*
X62071Y-46559D01*
X62033Y-46650D01*
X62033Y-46749D01*
X62032Y-46863D01*
X62094Y-46925D01*
X62350Y-46925D01*
X62350Y-47025D01*
X62094Y-47025D01*
X62032Y-47087D01*
X62033Y-47201D01*
X62033Y-47300D01*
X62071Y-47391D01*
X62141Y-47461D01*
X62233Y-47499D01*
X62288Y-47500D01*
X62350Y-47438D01*
X62350Y-48275D01*
X62300Y-48275D01*
X62300Y-48175D01*
X62300Y-47812D01*
X62238Y-47750D01*
X62176Y-47751D01*
X62084Y-47789D01*
X62014Y-47859D01*
X61976Y-47950D01*
X61976Y-48049D01*
X61975Y-48113D01*
X62037Y-48175D01*
X62300Y-48175D01*
X62300Y-48275D01*
X62250Y-48275D01*
X62037Y-48275D01*
X61975Y-48337D01*
X61976Y-48401D01*
X61976Y-48500D01*
X62014Y-48591D01*
X62042Y-48619D01*
X60800Y-48619D01*
X60800Y-47034D01*
X60800Y-46849D01*
X60729Y-46678D01*
X60598Y-46546D01*
X60427Y-46475D01*
X60242Y-46475D01*
X60071Y-46546D01*
X59965Y-46651D01*
X58734Y-46651D01*
X58630Y-46546D01*
X58459Y-46475D01*
X58310Y-46475D01*
X58040Y-46205D01*
X58040Y-45474D01*
X58099Y-45474D01*
X58191Y-45436D01*
X58261Y-45366D01*
X58299Y-45275D01*
X58299Y-45176D01*
X58299Y-44576D01*
X58261Y-44484D01*
X58191Y-44414D01*
X58100Y-44376D01*
X58001Y-44376D01*
X57401Y-44376D01*
X57309Y-44414D01*
X57239Y-44484D01*
X57201Y-44575D01*
X57201Y-44637D01*
X57128Y-44617D01*
X57058Y-44687D01*
X57058Y-44547D01*
X57058Y-43703D01*
X56750Y-43396D01*
X56679Y-43466D01*
X56679Y-43325D01*
X56372Y-43017D01*
X56278Y-43044D01*
X56207Y-43246D01*
X56218Y-43459D01*
X56278Y-43606D01*
X56372Y-43633D01*
X56679Y-43325D01*
X56679Y-43466D01*
X56442Y-43703D01*
X56469Y-43797D01*
X56671Y-43868D01*
X56884Y-43857D01*
X57031Y-43797D01*
X57058Y-43703D01*
X57058Y-44547D01*
X57031Y-44453D01*
X56829Y-44382D01*
X56616Y-44393D01*
X56469Y-44453D01*
X56442Y-44547D01*
X56750Y-44854D01*
X57058Y-44547D01*
X57058Y-44687D01*
X56821Y-44925D01*
X57128Y-45233D01*
X57201Y-45212D01*
X57201Y-45274D01*
X57239Y-45366D01*
X57309Y-45436D01*
X57400Y-45474D01*
X57460Y-45474D01*
X57460Y-46325D01*
X57482Y-46436D01*
X57545Y-46530D01*
X57900Y-46885D01*
X57900Y-47033D01*
X57971Y-47204D01*
X58102Y-47336D01*
X58273Y-47407D01*
X58458Y-47407D01*
X58629Y-47336D01*
X58734Y-47231D01*
X59965Y-47231D01*
X60070Y-47336D01*
X60241Y-47407D01*
X60426Y-47407D01*
X60597Y-47336D01*
X60729Y-47205D01*
X60800Y-47034D01*
X60800Y-48619D01*
X60702Y-48619D01*
X60598Y-48514D01*
X60427Y-48443D01*
X60242Y-48443D01*
X60071Y-48514D01*
X59965Y-48619D01*
X58734Y-48619D01*
X58630Y-48514D01*
X58459Y-48443D01*
X58274Y-48443D01*
X58103Y-48514D01*
X57971Y-48645D01*
X57900Y-48816D01*
X57900Y-49001D01*
X57971Y-49172D01*
X58102Y-49304D01*
X58273Y-49375D01*
X58458Y-49375D01*
X58629Y-49304D01*
X58734Y-49199D01*
X59965Y-49199D01*
X60070Y-49304D01*
X60241Y-49375D01*
X60426Y-49375D01*
X60597Y-49304D01*
X60702Y-49199D01*
X63066Y-49199D01*
X63177Y-49177D01*
X63271Y-49114D01*
X64105Y-48280D01*
X64168Y-48186D01*
X64190Y-48075D01*
X64190Y-47430D01*
X64229Y-47391D01*
X64267Y-47300D01*
X64267Y-47201D01*
X64267Y-46651D01*
X64229Y-46559D01*
X64190Y-46520D01*
X64190Y-45995D01*
X64955Y-45230D01*
X65018Y-45136D01*
X65040Y-45025D01*
X65040Y-50275D01*
X57058Y-50275D01*
X57058Y-45303D01*
X56750Y-44996D01*
X56679Y-45066D01*
X56679Y-44925D01*
X56372Y-44617D01*
X56278Y-44644D01*
X56207Y-44846D01*
X56218Y-45059D01*
X56278Y-45206D01*
X56372Y-45233D01*
X56679Y-44925D01*
X56679Y-45066D01*
X56442Y-45303D01*
X56469Y-45397D01*
X56671Y-45468D01*
X56884Y-45457D01*
X57031Y-45397D01*
X57058Y-45303D01*
X57058Y-50275D01*
X55925Y-50275D01*
X55925Y-40925D01*
X65275Y-40925D01*
X65275Y-50275D01*
X65275Y-50275D01*
G37*
G54D21*
X65275Y-50275D02*
X65040Y-50275D01*
X65040Y-45025D01*
X65040Y-44975D01*
X65040Y-42475D01*
X65018Y-42364D01*
X64955Y-42270D01*
X64005Y-41320D01*
X63911Y-41257D01*
X63800Y-41235D01*
X61100Y-41235D01*
X60989Y-41257D01*
X60895Y-41320D01*
X59595Y-42620D01*
X59532Y-42714D01*
X59510Y-42825D01*
X59510Y-43180D01*
X59506Y-43179D01*
X59407Y-43179D01*
X59357Y-43179D01*
X59357Y-42128D01*
X59357Y-41238D01*
X56744Y-41238D01*
X56744Y-42128D01*
X59357Y-42128D01*
X59357Y-43179D01*
X58664Y-43179D01*
X58605Y-43120D01*
X58511Y-43057D01*
X58400Y-43035D01*
X58299Y-43035D01*
X58299Y-42976D01*
X58261Y-42884D01*
X58191Y-42814D01*
X58100Y-42776D01*
X58001Y-42776D01*
X57401Y-42776D01*
X57309Y-42814D01*
X57239Y-42884D01*
X57201Y-42975D01*
X57201Y-43037D01*
X57128Y-43017D01*
X57058Y-43087D01*
X57058Y-42947D01*
X57031Y-42853D01*
X56829Y-42782D01*
X56616Y-42793D01*
X56469Y-42853D01*
X56442Y-42947D01*
X56750Y-43254D01*
X57058Y-42947D01*
X57058Y-43087D01*
X56821Y-43325D01*
X57128Y-43633D01*
X57201Y-43612D01*
X57201Y-43674D01*
X57239Y-43766D01*
X57309Y-43836D01*
X57400Y-43874D01*
X57499Y-43874D01*
X58099Y-43874D01*
X58191Y-43836D01*
X58261Y-43766D01*
X58299Y-43675D01*
X58299Y-43634D01*
X58421Y-43756D01*
X58421Y-43871D01*
X58459Y-43963D01*
X58529Y-44033D01*
X58620Y-44071D01*
X58719Y-44071D01*
X59505Y-44071D01*
X59510Y-44068D01*
X59510Y-44525D01*
X59532Y-44636D01*
X59595Y-44730D01*
X59944Y-45079D01*
X59945Y-45080D01*
X60038Y-45142D01*
X60039Y-45143D01*
X60149Y-45164D01*
X60150Y-45165D01*
X62033Y-45165D01*
X62033Y-45199D01*
X62071Y-45291D01*
X62141Y-45361D01*
X62232Y-45399D01*
X62331Y-45399D01*
X62567Y-45399D01*
X62649Y-45364D01*
X62732Y-45399D01*
X62831Y-45399D01*
X63067Y-45399D01*
X63110Y-45381D01*
X63110Y-45455D01*
X62695Y-45870D01*
X62632Y-45964D01*
X62610Y-46075D01*
X62610Y-46468D01*
X62567Y-46451D01*
X62512Y-46450D01*
X62450Y-46512D01*
X62450Y-46875D01*
X62450Y-46925D01*
X62450Y-47025D01*
X62450Y-47075D01*
X62450Y-47438D01*
X62512Y-47500D01*
X62567Y-47499D01*
X62610Y-47481D01*
X62610Y-47786D01*
X62524Y-47751D01*
X62462Y-47750D01*
X62400Y-47812D01*
X62400Y-48125D01*
X62400Y-48175D01*
X62400Y-48275D01*
X62350Y-48275D01*
X62350Y-47438D01*
X62350Y-47025D01*
X62350Y-46925D01*
X62350Y-46512D01*
X62288Y-46450D01*
X62233Y-46451D01*
X62141Y-46489D01*
X62071Y-46559D01*
X62033Y-46650D01*
X62033Y-46749D01*
X62032Y-46863D01*
X62094Y-46925D01*
X62350Y-46925D01*
X62350Y-47025D01*
X62094Y-47025D01*
X62032Y-47087D01*
X62033Y-47201D01*
X62033Y-47300D01*
X62071Y-47391D01*
X62141Y-47461D01*
X62233Y-47499D01*
X62288Y-47500D01*
X62350Y-47438D01*
X62350Y-48275D01*
X62300Y-48275D01*
X62300Y-48175D01*
X62300Y-47812D01*
X62238Y-47750D01*
X62176Y-47751D01*
X62084Y-47789D01*
X62014Y-47859D01*
X61976Y-47950D01*
X61976Y-48049D01*
X61975Y-48113D01*
X62037Y-48175D01*
X62300Y-48175D01*
X62300Y-48275D01*
X62250Y-48275D01*
X62037Y-48275D01*
X61975Y-48337D01*
X61976Y-48401D01*
X61976Y-48500D01*
X62014Y-48591D01*
X62042Y-48619D01*
X60800Y-48619D01*
X60800Y-47034D01*
X60800Y-46849D01*
X60729Y-46678D01*
X60598Y-46546D01*
X60427Y-46475D01*
X60242Y-46475D01*
X60071Y-46546D01*
X59965Y-46651D01*
X58734Y-46651D01*
X58630Y-46546D01*
X58459Y-46475D01*
X58310Y-46475D01*
X58040Y-46205D01*
X58040Y-45474D01*
X58099Y-45474D01*
X58191Y-45436D01*
X58261Y-45366D01*
X58299Y-45275D01*
X58299Y-45176D01*
X58299Y-44576D01*
X58261Y-44484D01*
X58191Y-44414D01*
X58100Y-44376D01*
X58001Y-44376D01*
X57401Y-44376D01*
X57309Y-44414D01*
X57239Y-44484D01*
X57201Y-44575D01*
X57201Y-44637D01*
X57128Y-44617D01*
X57058Y-44687D01*
X57058Y-44547D01*
X57058Y-43703D01*
X56750Y-43396D01*
X56679Y-43466D01*
X56679Y-43325D01*
X56372Y-43017D01*
X56278Y-43044D01*
X56207Y-43246D01*
X56218Y-43459D01*
X56278Y-43606D01*
X56372Y-43633D01*
X56679Y-43325D01*
X56679Y-43466D01*
X56442Y-43703D01*
X56469Y-43797D01*
X56671Y-43868D01*
X56884Y-43857D01*
X57031Y-43797D01*
X57058Y-43703D01*
X57058Y-44547D01*
X57031Y-44453D01*
X56829Y-44382D01*
X56616Y-44393D01*
X56469Y-44453D01*
X56442Y-44547D01*
X56750Y-44854D01*
X57058Y-44547D01*
X57058Y-44687D01*
X56821Y-44925D01*
X57128Y-45233D01*
X57201Y-45212D01*
X57201Y-45274D01*
X57239Y-45366D01*
X57309Y-45436D01*
X57400Y-45474D01*
X57460Y-45474D01*
X57460Y-46325D01*
X57482Y-46436D01*
X57545Y-46530D01*
X57900Y-46885D01*
X57900Y-47033D01*
X57971Y-47204D01*
X58102Y-47336D01*
X58273Y-47407D01*
X58458Y-47407D01*
X58629Y-47336D01*
X58734Y-47231D01*
X59965Y-47231D01*
X60070Y-47336D01*
X60241Y-47407D01*
X60426Y-47407D01*
X60597Y-47336D01*
X60729Y-47205D01*
X60800Y-47034D01*
X60800Y-48619D01*
X60702Y-48619D01*
X60598Y-48514D01*
X60427Y-48443D01*
X60242Y-48443D01*
X60071Y-48514D01*
X59965Y-48619D01*
X58734Y-48619D01*
X58630Y-48514D01*
X58459Y-48443D01*
X58274Y-48443D01*
X58103Y-48514D01*
X57971Y-48645D01*
X57900Y-48816D01*
X57900Y-49001D01*
X57971Y-49172D01*
X58102Y-49304D01*
X58273Y-49375D01*
X58458Y-49375D01*
X58629Y-49304D01*
X58734Y-49199D01*
X59965Y-49199D01*
X60070Y-49304D01*
X60241Y-49375D01*
X60426Y-49375D01*
X60597Y-49304D01*
X60702Y-49199D01*
X63066Y-49199D01*
X63177Y-49177D01*
X63271Y-49114D01*
X64105Y-48280D01*
X64168Y-48186D01*
X64190Y-48075D01*
X64190Y-47430D01*
X64229Y-47391D01*
X64267Y-47300D01*
X64267Y-47201D01*
X64267Y-46651D01*
X64229Y-46559D01*
X64190Y-46520D01*
X64190Y-45995D01*
X64955Y-45230D01*
X65018Y-45136D01*
X65040Y-45025D01*
X65040Y-50275D01*
X57058Y-50275D01*
X57058Y-45303D01*
X56750Y-44996D01*
X56679Y-45066D01*
X56679Y-44925D01*
X56372Y-44617D01*
X56278Y-44644D01*
X56207Y-44846D01*
X56218Y-45059D01*
X56278Y-45206D01*
X56372Y-45233D01*
X56679Y-44925D01*
X56679Y-45066D01*
X56442Y-45303D01*
X56469Y-45397D01*
X56671Y-45468D01*
X56884Y-45457D01*
X57031Y-45397D01*
X57058Y-45303D01*
X57058Y-50275D01*
X55925Y-50275D01*
X55925Y-40925D01*
X65275Y-40925D01*
X65275Y-50275D01*
M02*
